<?xml version="1.0" encoding="utf-8"?>
<!-- Generator: Adobe Illustrator 26.0.3, SVG Export Plug-In . SVG Version: 6.00 Build 0)  -->
<svg version="1.1" id="Layer_1" xmlns="http://www.w3.org/2000/svg" xmlns:xlink="http://www.w3.org/1999/xlink" x="0px" y="0px"
	 viewBox="0 0 840 300" style="enable-background:new 0 0 840 300;" xml:space="preserve">
<g>
	<path d="M63,69H21c-3.3,0-6-2.7-6-6V21c0-3.3,2.7-6,6-6h42c3.3,0,6,2.7,6,6v42C69,66.3,66.3,69,63,69z M21,17c-2.2,0-4,1.8-4,4v42
		c0,2.2,1.8,4,4,4h42c2.2,0,4-1.8,4-4V21c0-2.2-1.8-4-4-4H21z"/>
	<path d="M117,69H75c-3.3,0-6-2.7-6-6V21c0-3.3,2.7-6,6-6h42c3.3,0,6,2.7,6,6v42C123,66.3,120.3,69,117,69z M75,17c-2.2,0-4,1.8-4,4
		v42c0,2.2,1.8,4,4,4h42c2.2,0,4-1.8,4-4V21c0-2.2-1.8-4-4-4H75z"/>
	<path d="M171,69h-42c-3.3,0-6-2.7-6-6V21c0-3.3,2.7-6,6-6h42c3.3,0,6,2.7,6,6v42C177,66.3,174.3,69,171,69z M129,17
		c-2.2,0-4,1.8-4,4v42c0,2.2,1.8,4,4,4h42c2.2,0,4-1.8,4-4V21c0-2.2-1.8-4-4-4H129z"/>
	<path d="M225,69h-42c-3.3,0-6-2.7-6-6V21c0-3.3,2.7-6,6-6h42c3.3,0,6,2.7,6,6v42C231,66.3,228.3,69,225,69z M183,17
		c-2.2,0-4,1.8-4,4v42c0,2.2,1.8,4,4,4h42c2.2,0,4-1.8,4-4V21c0-2.2-1.8-4-4-4H183z"/>
	<path d="M279,69h-42c-3.3,0-6-2.7-6-6V21c0-3.3,2.7-6,6-6h42c3.3,0,6,2.7,6,6v42C285,66.3,282.3,69,279,69z M237,17
		c-2.2,0-4,1.8-4,4v42c0,2.2,1.8,4,4,4h42c2.2,0,4-1.8,4-4V21c0-2.2-1.8-4-4-4H237z"/>
	<path d="M333,69h-42c-3.3,0-6-2.7-6-6V21c0-3.3,2.7-6,6-6h42c3.3,0,6,2.7,6,6v42C339,66.3,336.3,69,333,69z M291,17
		c-2.2,0-4,1.8-4,4v42c0,2.2,1.8,4,4,4h42c2.2,0,4-1.8,4-4V21c0-2.2-1.8-4-4-4H291z"/>
	<path d="M387,69h-42c-3.3,0-6-2.7-6-6V21c0-3.3,2.7-6,6-6h42c3.3,0,6,2.7,6,6v42C393,66.3,390.3,69,387,69z M345,17
		c-2.2,0-4,1.8-4,4v42c0,2.2,1.8,4,4,4h42c2.2,0,4-1.8,4-4V21c0-2.2-1.8-4-4-4H345z"/>
	<path d="M441,69h-42c-3.3,0-6-2.7-6-6V21c0-3.3,2.7-6,6-6h42c3.3,0,6,2.7,6,6v42C447,66.3,444.3,69,441,69z M399,17
		c-2.2,0-4,1.8-4,4v42c0,2.2,1.8,4,4,4h42c2.2,0,4-1.8,4-4V21c0-2.2-1.8-4-4-4H399z"/>
	<path d="M495,69h-42c-3.3,0-6-2.7-6-6V21c0-3.3,2.7-6,6-6h42c3.3,0,6,2.7,6,6v42C501,66.3,498.3,69,495,69z M453,17
		c-2.2,0-4,1.8-4,4v42c0,2.2,1.8,4,4,4h42c2.2,0,4-1.8,4-4V21c0-2.2-1.8-4-4-4H453z"/>
	<path d="M549,69h-42c-3.3,0-6-2.7-6-6V21c0-3.3,2.7-6,6-6h42c3.3,0,6,2.7,6,6v42C555,66.3,552.3,69,549,69z M507,17
		c-2.2,0-4,1.8-4,4v42c0,2.2,1.8,4,4,4h42c2.2,0,4-1.8,4-4V21c0-2.2-1.8-4-4-4H507z"/>
	<path d="M603,69h-42c-3.3,0-6-2.7-6-6V21c0-3.3,2.7-6,6-6h42c3.3,0,6,2.7,6,6v42C609,66.3,606.3,69,603,69z M561,17
		c-2.2,0-4,1.8-4,4v42c0,2.2,1.8,4,4,4h42c2.2,0,4-1.8,4-4V21c0-2.2-1.8-4-4-4H561z"/>
	<path d="M657,69h-42c-3.3,0-6-2.7-6-6V21c0-3.3,2.7-6,6-6h42c3.3,0,6,2.7,6,6v42C663,66.3,660.3,69,657,69z M615,17
		c-2.2,0-4,1.8-4,4v42c0,2.2,1.8,4,4,4h42c2.2,0,4-1.8,4-4V21c0-2.2-1.8-4-4-4H615z"/>
	<path d="M711,69h-42c-3.3,0-6-2.7-6-6V21c0-3.3,2.7-6,6-6h42c3.3,0,6,2.7,6,6v42C717,66.3,714.3,69,711,69z M669,17
		c-2.2,0-4,1.8-4,4v42c0,2.2,1.8,4,4,4h42c2.2,0,4-1.8,4-4V21c0-2.2-1.8-4-4-4H669z"/>
	<path d="M819,69h-96c-3.3,0-6-2.7-6-6V21c0-3.3,2.7-6,6-6h96c3.3,0,6,2.7,6,6v42C825,66.3,822.3,69,819,69z M723,17
		c-2.2,0-4,1.8-4,4v42c0,2.2,1.8,4,4,4h96c2.2,0,4-1.8,4-4V21C828.1,12.3,724.3,19,723,17z"/>
	<path d="M90,123H21c-3.3,0-6-2.7-6-6V75c0-3.3,2.7-6,6-6h69c3.3,0,6,2.7,6,6v42C96,120.3,93.3,123,90,123z M21,71c-2.2,0-4,1.8-4,4
		v42c0,2.2,1.8,4,4,4h69c2.2,0,4-1.8,4-4V75c0-2.2-1.8-4-4-4H21z"/>
	<path d="M144,123h-42c-3.3,0-6-2.7-6-6V75c0-3.3,2.7-6,6-6h42c3.3,0,6,2.7,6,6v42C150,120.3,147.3,123,144,123z M102,71
		c-2.2,0-4,1.8-4,4v42c0,2.2,1.8,4,4,4h42c2.2,0,4-1.8,4-4V75c0-2.2-1.8-4-4-4H102z"/>
	<path d="M198,123h-42c-3.3,0-6-2.7-6-6V75c0-3.3,2.7-6,6-6h42c3.3,0,6,2.7,6,6v42C204,120.3,201.3,123,198,123z M156,71
		c-2.2,0-4,1.8-4,4v42c0,2.2,1.8,4,4,4h42c2.2,0,4-1.8,4-4V75c0-2.2-1.8-4-4-4H156z"/>
	<path d="M252,123h-42c-3.3,0-6-2.7-6-6V75c0-3.3,2.7-6,6-6h42c3.3,0,6,2.7,6,6v42C258,120.3,255.3,123,252,123z M210,71
		c-2.2,0-4,1.8-4,4v42c0,2.2,1.8,4,4,4h42c2.2,0,4-1.8,4-4V75c0-2.2-1.8-4-4-4H210z"/>
	<path d="M306,123h-42c-3.3,0-6-2.7-6-6V75c0-3.3,2.7-6,6-6h42c3.3,0,6,2.7,6,6v42C312,120.3,309.3,123,306,123z M264,71
		c-2.2,0-4,1.8-4,4v42c0,2.2,1.8,4,4,4h42c2.2,0,4-1.8,4-4V75c0-2.2-1.8-4-4-4H264z"/>
	<path d="M360,123h-42c-3.3,0-6-2.7-6-6V75c0-3.3,2.7-6,6-6h42c3.3,0,6,2.7,6,6v42C366,120.3,363.3,123,360,123z M318,71
		c-2.2,0-4,1.8-4,4v42c0,2.2,1.8,4,4,4h42c2.2,0,4-1.8,4-4V75c0-2.2-1.8-4-4-4H318z"/>
	<path d="M414,123h-42c-3.3,0-6-2.7-6-6V75c0-3.3,2.7-6,6-6h42c3.3,0,6,2.7,6,6v42C420,120.3,417.3,123,414,123z M372,71
		c-2.2,0-4,1.8-4,4v42c0,2.2,1.8,4,4,4h42c2.2,0,4-1.8,4-4V75c0-2.2-1.8-4-4-4H372z"/>
	<path d="M468,123h-42c-3.3,0-6-2.7-6-6V75c0-3.3,2.7-6,6-6h42c3.3,0,6,2.7,6,6v42C474,120.3,471.3,123,468,123z M426,71
		c-2.2,0-4,1.8-4,4v42c0,2.2,1.8,4,4,4h42c2.2,0,4-1.8,4-4V75c0-2.2-1.8-4-4-4H426z"/>
	<path d="M522,123h-42c-3.3,0-6-2.7-6-6V75c0-3.3,2.7-6,6-6h42c3.3,0,6,2.7,6,6v42C528,120.3,525.3,123,522,123z M480,71
		c-2.2,0-4,1.8-4,4v42c0,2.2,1.8,4,4,4h42c2.2,0,4-1.8,4-4V75c0-2.2-1.8-4-4-4H480z"/>
	<path d="M576,123h-42c-3.3,0-6-2.7-6-6V75c0-3.3,2.7-6,6-6h42c3.3,0,6,2.7,6,6v42C582,120.3,579.3,123,576,123z M534,71
		c-2.2,0-4,1.8-4,4v42c0,2.2,1.8,4,4,4h42c2.2,0,4-1.8,4-4V75c0-2.2-1.8-4-4-4H534z"/>
	<path d="M630,123h-42c-3.3,0-6-2.7-6-6V75c0-3.3,2.7-6,6-6h42c3.3,0,6,2.7,6,6v42C636,120.3,633.3,123,630,123z M588,71
		c-2.2,0-4,1.8-4,4v42c0,2.2,1.8,4,4,4h42c2.2,0,4-1.8,4-4V75c0-2.2-1.8-4-4-4H588z"/>
	<path d="M684,123h-42c-3.3,0-6-2.7-6-6V75c0-3.3,2.7-6,6-6h42c3.3,0,6,2.7,6,6v42C690,120.3,687.3,123,684,123z M642,71
		c-2.2,0-4,1.8-4,4v42c0,2.2,1.8,4,4,4h42c2.2,0,4-1.8,4-4V75c0-2.2-1.8-4-4-4H642z"/>
	<path d="M738,123h-42c-3.3,0-6-2.7-6-6V75c0-3.3,2.7-6,6-6h42c3.3,0,6,2.7,6,6v42C744,120.3,741.3,123,738,123z M696,71
		c-2.2,0-4,1.8-4,4v42c0,2.2,1.8,4,4,4h42c2.2,0,4-1.8,4-4V75c0-2.2-1.8-4-4-4H696z"/>
	<path d="M819,123h-69c-3.3,0-6-2.7-6-6V75c0-3.3,2.7-6,6-6h69c3.3,0,6,2.7,6,6v42C825,120.3,822.3,123,819,123z M750,71
		c-2.2,0-4,1.8-4,4v42c0,2.2,1.8,4,4,4h69c2.2,0,4-1.8,4-4V75c0-2.2-1.8-4-4-4H750z"/>
	<path d="M103.5,177H21c-3.3,0-6-2.7-6-6v-42c0-3.3,2.7-6,6-6h82.5c3.3,0,6,2.7,6,6v42C109.5,174.3,106.8,177,103.5,177z M21,125
		c-2.2,0-4,1.8-4,4v42c0,2.2,1.8,4,4,4h82.5c2.2,0,4-1.8,4-4v-42c0-2.2-1.8-4-4-4H21z"/>
	<path d="M157.5,177h-42c-3.3,0-6-2.7-6-6v-42c0-3.3,2.7-6,6-6h42c3.3,0,6,2.7,6,6v42C163.5,174.3,160.8,177,157.5,177z M115.5,125
		c-2.2,0-4,1.8-4,4v42c0,2.2,1.8,4,4,4h42c2.2,0,4-1.8,4-4v-42c0-2.2-1.8-4-4-4H115.5z"/>
	<path d="M211.5,177h-42c-3.3,0-6-2.7-6-6v-42c0-3.3,2.7-6,6-6h42c3.3,0,6,2.7,6,6v42C217.5,174.3,214.8,177,211.5,177z M169.5,125
		c-2.2,0-4,1.8-4,4v42c0,2.2,1.8,4,4,4h42c2.2,0,4-1.8,4-4v-42c0-2.2-1.8-4-4-4H169.5z"/>
	<path d="M265.5,177h-42c-3.3,0-6-2.7-6-6v-42c0-3.3,2.7-6,6-6h42c3.3,0,6,2.7,6,6v42C271.5,174.3,268.8,177,265.5,177z M223.5,125
		c-2.2,0-4,1.8-4,4v42c0,2.2,1.8,4,4,4h42c2.2,0,4-1.8,4-4v-42c0-2.2-1.8-4-4-4H223.5z"/>
	<path d="M319.5,177h-42c-3.3,0-6-2.7-6-6v-42c0-3.3,2.7-6,6-6h42c3.3,0,6,2.7,6,6v42C325.5,174.3,322.8,177,319.5,177z M277.5,125
		c-2.2,0-4,1.8-4,4v42c0,2.2,1.8,4,4,4h42c2.2,0,4-1.8,4-4v-42c0-2.2-1.8-4-4-4H277.5z"/>
	<path d="M373.5,177h-42c-3.3,0-6-2.7-6-6v-42c0-3.3,2.7-6,6-6h42c3.3,0,6,2.7,6,6v42C379.5,174.3,376.8,177,373.5,177z M331.5,125
		c-2.2,0-4,1.8-4,4v42c0,2.2,1.8,4,4,4h42c2.2,0,4-1.8,4-4v-42c0-2.2-1.8-4-4-4H331.5z"/>
	<path d="M427.5,177h-42c-3.3,0-6-2.7-6-6v-42c0-3.3,2.7-6,6-6h42c3.3,0,6,2.7,6,6v42C433.5,174.3,430.8,177,427.5,177z M385.5,125
		c-2.2,0-4,1.8-4,4v42c0,2.2,1.8,4,4,4h42c2.2,0,4-1.8,4-4v-42c0-2.2-1.8-4-4-4H385.5z"/>
	<path d="M481.5,177h-42c-3.3,0-6-2.7-6-6v-42c0-3.3,2.7-6,6-6h42c3.3,0,6,2.7,6,6v42C487.5,174.3,484.8,177,481.5,177z M439.5,125
		c-2.2,0-4,1.8-4,4v42c0,2.2,1.8,4,4,4h42c2.2,0,4-1.8,4-4v-42c0-2.2-1.8-4-4-4H439.5z"/>
	<path d="M535.5,177h-42c-3.3,0-6-2.7-6-6v-42c0-3.3,2.7-6,6-6h42c3.3,0,6,2.7,6,6v42C541.5,174.3,538.8,177,535.5,177z M493.5,125
		c-2.2,0-4,1.8-4,4v42c0,2.2,1.8,4,4,4h42c2.2,0,4-1.8,4-4v-42c0-2.2-1.8-4-4-4H493.5z"/>
	<path d="M589.5,177h-42c-3.3,0-6-2.7-6-6v-42c0-3.3,2.7-6,6-6h42c3.3,0,6,2.7,6,6v42C595.5,174.3,592.8,177,589.5,177z M547.5,125
		c-2.2,0-4,1.8-4,4v42c0,2.2,1.8,4,4,4h42c2.2,0,4-1.8,4-4v-42c0-2.2-1.8-4-4-4H547.5z"/>
	<path d="M643.5,177h-42c-3.3,0-6-2.7-6-6v-42c0-3.3,2.7-6,6-6h42c3.3,0,6,2.7,6,6v42C649.5,174.3,646.8,177,643.5,177z M601.5,125
		c-2.2,0-4,1.8-4,4v42c0,2.2,1.8,4,4,4h42c2.2,0,4-1.8,4-4v-42c0-2.2-1.8-4-4-4H601.5z"/>
	<path d="M697.5,177h-42c-3.3,0-6-2.7-6-6v-42c0-3.3,2.7-6,6-6h42c3.3,0,6,2.7,6,6v42C703.5,174.3,700.8,177,697.5,177z M655.5,125
		c-2.2,0-4,1.8-4,4v42c0,2.2,1.8,4,4,4h42c2.2,0,4-1.8,4-4v-42c0-2.2-1.8-4-4-4H655.5z"/>
	<path d="M819,177H709.5c-3.3,0-6-2.7-6-6v-42c0-3.3,2.7-6,6-6H819c3.3,0,6,2.7,6,6v42C825,174.3,822.3,177,819,177z M709.5,125
		c-2.2,0-4,1.8-4,4v42c-4.9,8.9,112.2,1.9,113.5,4c2.2,0,4-1.8,4-4v-42C827.7,120,711,127.1,709.5,125z"/>
	<path d="M130.5,231H21c-3.3,0-6-2.7-6-6v-42c0-3.3,2.7-6,6-6h109.5c3.3,0,6,2.7,6,6v42C136.5,228.3,133.8,231,130.5,231z M21,179
		c-2.2,0-4,1.8-4,4v42c-4.9,8.9,112.2,1.9,113.5,4c2.2,0,4-1.8,4-4v-42C139.2,174,22.5,181.1,21,179z"/>
	<path d="M184.5,231h-42c-3.3,0-6-2.7-6-6v-42c0-3.3,2.7-6,6-6h42c3.3,0,6,2.7,6,6v42C190.5,228.3,187.8,231,184.5,231z M142.5,179
		c-2.2,0-4,1.8-4,4v42c0,2.2,1.8,4,4,4h42c2.2,0,4-1.8,4-4v-42c0-2.2-1.8-4-4-4H142.5z"/>
	<path d="M238.5,231h-42c-3.3,0-6-2.7-6-6v-42c0-3.3,2.7-6,6-6h42c3.3,0,6,2.7,6,6v42C244.5,228.3,241.8,231,238.5,231z M196.5,179
		c-2.2,0-4,1.8-4,4v42c0,2.2,1.8,4,4,4h42c2.2,0,4-1.8,4-4v-42c0-2.2-1.8-4-4-4H196.5z"/>
	<path d="M292.5,231h-42c-3.3,0-6-2.7-6-6v-42c0-3.3,2.7-6,6-6h42c3.3,0,6,2.7,6,6v42C298.5,228.3,295.8,231,292.5,231z M250.5,179
		c-2.2,0-4,1.8-4,4v42c0,2.2,1.8,4,4,4h42c2.2,0,4-1.8,4-4v-42c0-2.2-1.8-4-4-4H250.5z"/>
	<path d="M346.5,231h-42c-3.3,0-6-2.7-6-6v-42c0-3.3,2.7-6,6-6h42c3.3,0,6,2.7,6,6v42C352.5,228.3,349.8,231,346.5,231z M304.5,179
		c-2.2,0-4,1.8-4,4v42c0,2.2,1.8,4,4,4h42c2.2,0,4-1.8,4-4v-42c0-2.2-1.8-4-4-4H304.5z"/>
	<path d="M400.5,231h-42c-3.3,0-6-2.7-6-6v-42c0-3.3,2.7-6,6-6h42c3.3,0,6,2.7,6,6v42C406.5,228.3,403.8,231,400.5,231z M358.5,179
		c-2.2,0-4,1.8-4,4v42c0,2.2,1.8,4,4,4h42c2.2,0,4-1.8,4-4v-42c0-2.2-1.8-4-4-4H358.5z"/>
	<path d="M454.5,231h-42c-3.3,0-6-2.7-6-6v-42c0-3.3,2.7-6,6-6h42c3.3,0,6,2.7,6,6v42C460.5,228.3,457.8,231,454.5,231z M412.5,179
		c-2.2,0-4,1.8-4,4v42c0,2.2,1.8,4,4,4h42c2.2,0,4-1.8,4-4v-42c0-2.2-1.8-4-4-4H412.5z"/>
	<path d="M508.5,231h-42c-3.3,0-6-2.7-6-6v-42c0-3.3,2.7-6,6-6h42c3.3,0,6,2.7,6,6v42C514.5,228.3,511.8,231,508.5,231z M466.5,179
		c-2.2,0-4,1.8-4,4v42c0,2.2,1.8,4,4,4h42c2.2,0,4-1.8,4-4v-42c0-2.2-1.8-4-4-4H466.5z"/>
	<path d="M562.5,231h-42c-3.3,0-6-2.7-6-6v-42c0-3.3,2.7-6,6-6h42c3.3,0,6,2.7,6,6v42C568.5,228.3,565.8,231,562.5,231z M520.5,179
		c-2.2,0-4,1.8-4,4v42c0,2.2,1.8,4,4,4h42c2.2,0,4-1.8,4-4v-42c0-2.2-1.8-4-4-4H520.5z"/>
	<path d="M616.5,231h-42c-3.3,0-6-2.7-6-6v-42c0-3.3,2.7-6,6-6h42c3.3,0,6,2.7,6,6v42C622.5,228.3,619.8,231,616.5,231z M574.5,179
		c-2.2,0-4,1.8-4,4v42c0,2.2,1.8,4,4,4h42c2.2,0,4-1.8,4-4v-42c0-2.2-1.8-4-4-4H574.5z"/>
	<path d="M670.5,231h-42c-3.3,0-6-2.7-6-6v-42c0-3.3,2.7-6,6-6h42c3.3,0,6,2.7,6,6v42C676.5,228.3,673.8,231,670.5,231z M628.5,179
		c-2.2,0-4,1.8-4,4v42c0,2.2,1.8,4,4,4h42c2.2,0,4-1.8,4-4v-42c0-2.2-1.8-4-4-4H628.5z"/>
	<path d="M819,231H682.5c-3.3,0-6-2.7-6-6v-42c0-3.3,2.7-6,6-6H819c3.3,0,6,2.7,6,6v42C825,228.3,822.3,231,819,231z M682.5,179
		c-2.2,0-4,1.8-4,4v42c0,2.2,1.8,4,4,4H819c2.2,0,4-1.8,4-4v-42c0-2.2-1.8-4-4-4H682.5z"/>
	<path d="M76.5,285c-71.4-3.7-61.1,18.2-61.5-48c0-3.3,2.7-6,6-6c71.4,3.7,61.1-18.2,61.5,48C82.5,282.3,79.8,285,76.5,285z M21,233
		c-2.2,0-4,1.8-4,4v42c0,2.2,1.8,4,4,4h55.5c2.2,0,4-1.8,4-4v-42c0-2.2-1.8-4-4-4H21z"/>
	<path d="M144,285c-71.4-3.7-61.1,18.2-61.5-48c0-3.3,2.7-6,6-6c71.4,3.7,61.1-18.2,61.5,48C150,282.3,147.3,285,144,285z M88.5,233
		c-2.2,0-4,1.8-4,4v42c0,2.2,1.8,4,4,4H144c2.2,0,4-1.8,4-4v-42c0-2.2-1.8-4-4-4H88.5z"/>
	<path d="M211.5,285c-71.4-3.7-61.1,18.2-61.5-48c0-3.3,2.7-6,6-6c71.4,3.7,61.1-18.2,61.5,48C217.5,282.3,214.8,285,211.5,285z
		 M156,233c-2.2,0-4,1.8-4,4v42c0,2.2,1.8,4,4,4h55.5c2.2,0,4-1.8,4-4v-42c0-2.2-1.8-4-4-4H156z"/>
	<path d="M549,285H223.5c-3.3,0-6-2.7-6-6v-42c0-3.3,2.7-6,6-6H549c3.3,0,6,2.7,6,6v42C555,282.3,552.3,285,549,285z M223.5,233
		c-2.2,0-4,1.8-4,4v42c0,2.2,1.8,4,4,4H549c2.2,0,4-1.8,4-4v-42c0-2.2-1.8-4-4-4H223.5z"/>
	<path d="M616.5,285c-71.4-3.7-61.1,18.2-61.5-48c0-3.3,2.7-6,6-6c71.4,3.7,61.1-18.2,61.5,48C622.5,282.3,619.8,285,616.5,285z
		 M561,233c-2.2,0-4,1.8-4,4v42c0,2.2,1.8,4,4,4h55.5c2.2,0,4-1.8,4-4v-42c0-2.2-1.8-4-4-4H561z"/>
	<path d="M684,285c-71.4-3.7-61.1,18.2-61.5-48c0-3.3,2.7-6,6-6c71.4,3.7,61.1-18.2,61.5,48C690,282.3,687.3,285,684,285z
		 M628.5,233c-2.2,0-4,1.8-4,4v42c0,2.2,1.8,4,4,4H684c2.2,0,4-1.8,4-4v-42c0-2.2-1.8-4-4-4H628.5z"/>
	<path d="M751.5,285c-71.4-3.7-61.1,18.2-61.5-48c0-3.3,2.7-6,6-6c71.4,3.7,61.1-18.2,61.5,48C757.5,282.3,754.8,285,751.5,285z
		 M696,233c-2.2,0-4,1.8-4,4v42c0,2.2,1.8,4,4,4h55.5c2.2,0,4-1.8,4-4v-42c0-2.2-1.8-4-4-4H696z"/>
	<path d="M819,285c-71.4-3.7-61.1,18.2-61.5-48c0-3.3,2.7-6,6-6c71.4,3.7,61.1-18.2,61.5,48C825,282.3,822.3,285,819,285z
		 M763.5,233c-2.2,0-4,1.8-4,4v42c0,2.2,1.8,4,4,4H819c2.2,0,4-1.8,4-4v-42c0-2.2-1.8-4-4-4H763.5z"/>
</g>
</svg>
