<?xml version="1.0" encoding="utf-8"?>
<!-- Generator: Adobe Illustrator 26.0.3, SVG Export Plug-In . SVG Version: 6.00 Build 0)  -->
<svg version="1.1" id="Layer_1" xmlns="http://www.w3.org/2000/svg" xmlns:xlink="http://www.w3.org/1999/xlink" x="0px" y="0px"
	 viewBox="0 0 1245 381" style="enable-background:new 0 0 1245 381;" xml:space="preserve">
<style type="text/css">
	.st0{fill:none;stroke:#000000;stroke-width:2;}
</style>
<g>
	<path class="st0" d="M21,16h42c2.8,0,5,2.2,5,5v42c0,2.8-2.2,5-5,5H21c-2.8,0-5-2.2-5-5V21C16,18.2,18.2,16,21,16z"/>
	<path class="st0" d="M129,16h42c2.8,0,5,2.2,5,5v42c0,2.8-2.2,5-5,5h-42c-2.8,0-5-2.2-5-5V21C124,18.2,126.2,16,129,16z"/>
	<path class="st0" d="M183,16h42c2.8,0,5,2.2,5,5v42c0,2.8-2.2,5-5,5h-42c-2.8,0-5-2.2-5-5V21C178,18.2,180.2,16,183,16z"/>
	<path class="st0" d="M237,16h42c2.8,0,5,2.2,5,5v42c0,2.8-2.2,5-5,5h-42c-2.8,0-5-2.2-5-5V21C232,18.2,234.2,16,237,16z"/>
	<path class="st0" d="M291,16h42c2.8,0,5,2.2,5,5v42c0,2.8-2.2,5-5,5h-42c-2.8,0-5-2.2-5-5V21C286,18.2,288.2,16,291,16z"/>
	<path class="st0" d="M372,16h42c2.8,0,5,2.2,5,5v42c0,2.8-2.2,5-5,5h-42c-2.8,0-5-2.2-5-5V21C367,18.2,369.2,16,372,16z"/>
	<path class="st0" d="M426,16h42c2.8,0,5,2.2,5,5v42c0,2.8-2.2,5-5,5h-42c-2.8,0-5-2.2-5-5V21C421,18.2,423.2,16,426,16z"/>
	<path class="st0" d="M480,16h42c2.8,0,5,2.2,5,5v42c0,2.8-2.2,5-5,5h-42c-2.8,0-5-2.2-5-5V21C475,18.2,477.2,16,480,16z"/>
	<path class="st0" d="M534,16h42c2.8,0,5,2.2,5,5v42c0,2.8-2.2,5-5,5h-42c-2.8,0-5-2.2-5-5V21C529,18.2,531.2,16,534,16z"/>
	<path class="st0" d="M615,16h42c2.8,0,5,2.2,5,5v42c0,2.8-2.2,5-5,5h-42c-2.8,0-5-2.2-5-5V21C610,18.2,612.2,16,615,16z"/>
	<path class="st0" d="M669,16h42c2.8,0,5,2.2,5,5v42c0,2.8-2.2,5-5,5h-42c-2.8,0-5-2.2-5-5V21C664,18.2,666.2,16,669,16z"/>
	<path class="st0" d="M723,16h42c2.8,0,5,2.2,5,5v42c0,2.8-2.2,5-5,5h-42c-2.8,0-5-2.2-5-5V21C718,18.2,720.2,16,723,16z"/>
	<path class="st0" d="M777,16h42c2.8,0,5,2.2,5,5v42c0,2.8-2.2,5-5,5h-42c-2.8,0-5-2.2-5-5V21C772,18.2,774.2,16,777,16z"/>
	<path class="st0" d="M844.5,16h42c2.8,0,5,2.2,5,5v42c0,2.8-2.2,5-5,5h-42c-2.8,0-5-2.2-5-5V21C839.5,18.2,841.7,16,844.5,16z"/>
	<path class="st0" d="M898.5,16h42c2.8,0,5,2.2,5,5v42c0,2.8-2.2,5-5,5h-42c-2.8,0-5-2.2-5-5V21C893.5,18.2,895.7,16,898.5,16z"/>
	<path class="st0" d="M952.5,16h42c2.8,0,5,2.2,5,5v42c0,2.8-2.2,5-5,5h-42c-2.8,0-5-2.2-5-5V21C947.5,18.2,949.7,16,952.5,16z"/>
	<path class="st0" d="M21,97h42c2.8,0,5,2.2,5,5v42c0,2.8-2.2,5-5,5H21c-2.8,0-5-2.2-5-5v-42C16,99.2,18.2,97,21,97z"/>
	<path class="st0" d="M75,97h42c2.8,0,5,2.2,5,5v42c0,2.8-2.2,5-5,5H75c-2.8,0-5-2.2-5-5v-42C70,99.2,72.2,97,75,97z"/>
	<path class="st0" d="M129,97h42c2.8,0,5,2.2,5,5v42c0,2.8-2.2,5-5,5h-42c-2.8,0-5-2.2-5-5v-42C124,99.2,126.2,97,129,97z"/>
	<path class="st0" d="M183,97h42c2.8,0,5,2.2,5,5v42c0,2.8-2.2,5-5,5h-42c-2.8,0-5-2.2-5-5v-42C178,99.2,180.2,97,183,97z"/>
	<path class="st0" d="M237,97h42c2.8,0,5,2.2,5,5v42c0,2.8-2.2,5-5,5h-42c-2.8,0-5-2.2-5-5v-42C232,99.2,234.2,97,237,97z"/>
	<path class="st0" d="M291,97h42c2.8,0,5,2.2,5,5v42c0,2.8-2.2,5-5,5h-42c-2.8,0-5-2.2-5-5v-42C286,99.2,288.2,97,291,97z"/>
	<path class="st0" d="M345,97h42c2.8,0,5,2.2,5,5v42c0,2.8-2.2,5-5,5h-42c-2.8,0-5-2.2-5-5v-42C340,99.2,342.2,97,345,97z"/>
	<path class="st0" d="M399,97h42c2.8,0,5,2.2,5,5v42c0,2.8-2.2,5-5,5h-42c-2.8,0-5-2.2-5-5v-42C394,99.2,396.2,97,399,97z"/>
	<path class="st0" d="M453,97h42c2.8,0,5,2.2,5,5v42c0,2.8-2.2,5-5,5h-42c-2.8,0-5-2.2-5-5v-42C448,99.2,450.2,97,453,97z"/>
	<path class="st0" d="M507,97h42c2.8,0,5,2.2,5,5v42c0,2.8-2.2,5-5,5h-42c-2.8,0-5-2.2-5-5v-42C502,99.2,504.2,97,507,97z"/>
	<path class="st0" d="M561,97h42c2.8,0,5,2.2,5,5v42c0,2.8-2.2,5-5,5h-42c-2.8,0-5-2.2-5-5v-42C556,99.2,558.2,97,561,97z"/>
	<path class="st0" d="M615,97h42c2.8,0,5,2.2,5,5v42c0,2.8-2.2,5-5,5h-42c-2.8,0-5-2.2-5-5v-42C610,99.2,612.2,97,615,97z"/>
	<path class="st0" d="M669,97h42c2.8,0,5,2.2,5,5v42c0,2.8-2.2,5-5,5h-42c-2.8,0-5-2.2-5-5v-42C664,99.2,666.2,97,669,97z"/>
	<path class="st0" d="M723,97h96c2.8,0,5,2.2,5,5v42c0,2.8-2.2,5-5,5h-96c-2.8,0-5-2.2-5-5v-42C718,99.2,720.2,97,723,97z"/>
	<path class="st0" d="M844.5,97h42c2.8,0,5,2.2,5,5v42c0,2.8-2.2,5-5,5h-42c-2.8,0-5-2.2-5-5v-42C839.5,99.2,841.7,97,844.5,97z"/>
	<path class="st0" d="M898.5,97h42c2.8,0,5,2.2,5,5v42c0,2.8-2.2,5-5,5h-42c-2.8,0-5-2.2-5-5v-42C893.5,99.2,895.7,97,898.5,97z"/>
	<path class="st0" d="M952.5,97h42c2.8,0,5,2.2,5,5v42c0,2.8-2.2,5-5,5h-42c-2.8,0-5-2.2-5-5v-42C947.5,99.2,949.7,97,952.5,97z"/>
	<path class="st0" d="M1020,97h42c2.8,0,5,2.2,5,5v42c0,2.8-2.2,5-5,5h-42c-2.8,0-5-2.2-5-5v-42C1015,99.2,1017.2,97,1020,97z"/>
	<path class="st0" d="M1074,97h42c2.8,0,5,2.2,5,5v42c0,2.8-2.2,5-5,5h-42c-2.8,0-5-2.2-5-5v-42C1069,99.2,1071.2,97,1074,97z"/>
	<path class="st0" d="M1128,97h42c2.8,0,5,2.2,5,5v42c0,2.8-2.2,5-5,5h-42c-2.8,0-5-2.2-5-5v-42C1123,99.2,1125.2,97,1128,97z"/>
	<path class="st0" d="M1182,97h42c2.8,0,5,2.2,5,5v42c0,2.8-2.2,5-5,5h-42c-2.8,0-5-2.2-5-5v-42C1177,99.2,1179.2,97,1182,97z"/>
	<path class="st0" d="M21,151h69c2.8,0,5,2.2,5,5v42c0,2.8-2.2,5-5,5H21c-2.8,0-5-2.2-5-5v-42C16,153.2,18.2,151,21,151z"/>
	<path class="st0" d="M102,151h42c2.8,0,5,2.2,5,5v42c0,2.8-2.2,5-5,5h-42c-2.8,0-5-2.2-5-5v-42C97,153.2,99.2,151,102,151z"/>
	<path class="st0" d="M156,151h42c2.8,0,5,2.2,5,5v42c0,2.8-2.2,5-5,5h-42c-2.8,0-5-2.2-5-5v-42C151,153.2,153.2,151,156,151z"/>
	<path class="st0" d="M210,151h42c2.8,0,5,2.2,5,5v42c0,2.8-2.2,5-5,5h-42c-2.8,0-5-2.2-5-5v-42C205,153.2,207.2,151,210,151z"/>
	<path class="st0" d="M264,151h42c2.8,0,5,2.2,5,5v42c0,2.8-2.2,5-5,5h-42c-2.8,0-5-2.2-5-5v-42C259,153.2,261.2,151,264,151z"/>
	<path class="st0" d="M318,151h42c2.8,0,5,2.2,5,5v42c0,2.8-2.2,5-5,5h-42c-2.8,0-5-2.2-5-5v-42C313,153.2,315.2,151,318,151z"/>
	<path class="st0" d="M372,151h42c2.8,0,5,2.2,5,5v42c0,2.8-2.2,5-5,5h-42c-2.8,0-5-2.2-5-5v-42C367,153.2,369.2,151,372,151z"/>
	<path class="st0" d="M426,151h42c2.8,0,5,2.2,5,5v42c0,2.8-2.2,5-5,5h-42c-2.8,0-5-2.2-5-5v-42C421,153.2,423.2,151,426,151z"/>
	<path class="st0" d="M480,151h42c2.8,0,5,2.2,5,5v42c0,2.8-2.2,5-5,5h-42c-2.8,0-5-2.2-5-5v-42C475,153.2,477.2,151,480,151z"/>
	<path class="st0" d="M534,151h42c2.8,0,5,2.2,5,5v42c0,2.8-2.2,5-5,5h-42c-2.8,0-5-2.2-5-5v-42C529,153.2,531.2,151,534,151z"/>
	<path class="st0" d="M588,151h42c2.8,0,5,2.2,5,5v42c0,2.8-2.2,5-5,5h-42c-2.8,0-5-2.2-5-5v-42C583,153.2,585.2,151,588,151z"/>
	<path class="st0" d="M642,151h42c2.8,0,5,2.2,5,5v42c0,2.8-2.2,5-5,5h-42c-2.8,0-5-2.2-5-5v-42C637,153.2,639.2,151,642,151z"/>
	<path class="st0" d="M696,151h42c2.8,0,5,2.2,5,5v42c0,2.8-2.2,5-5,5h-42c-2.8,0-5-2.2-5-5v-42C691,153.2,693.2,151,696,151z"/>
	<path class="st0" d="M750,151h69c2.8,0,5,2.2,5,5v42c0,2.8-2.2,5-5,5h-69c-2.8,0-5-2.2-5-5v-42C745,153.2,747.2,151,750,151z"/>
	<path class="st0" d="M844.5,151h42c2.8,0,5,2.2,5,5v42c0,2.8-2.2,5-5,5h-42c-2.8,0-5-2.2-5-5v-42C839.5,153.2,841.7,151,844.5,151z
		"/>
	<path class="st0" d="M898.5,151h42c2.8,0,5,2.2,5,5v42c0,2.8-2.2,5-5,5h-42c-2.8,0-5-2.2-5-5v-42C893.5,153.2,895.7,151,898.5,151z
		"/>
	<path class="st0" d="M952.5,151h42c2.8,0,5,2.2,5,5v42c0,2.8-2.2,5-5,5h-42c-2.8,0-5-2.2-5-5v-42C947.5,153.2,949.7,151,952.5,151z
		"/>
	<path class="st0" d="M1020,151h42c2.8,0,5,2.2,5,5v42c0,2.8-2.2,5-5,5h-42c-2.8,0-5-2.2-5-5v-42C1015,153.2,1017.2,151,1020,151z"
		/>
	<path class="st0" d="M1074,151h42c2.8,0,5,2.2,5,5v42c0,2.8-2.2,5-5,5h-42c-2.8,0-5-2.2-5-5v-42C1069,153.2,1071.2,151,1074,151z"
		/>
	<path class="st0" d="M1128,151h42c2.8,0,5,2.2,5,5v42c0,2.8-2.2,5-5,5h-42c-2.8,0-5-2.2-5-5v-42C1123,153.2,1125.2,151,1128,151z"
		/>
	<path class="st0" d="M1182,151h42c2.8,0,5,2.2,5,5v96c0,2.8-2.2,5-5,5h-42c-2.8,0-5-2.2-5-5v-96C1177,153.2,1179.2,151,1182,151z"
		/>
	<path class="st0" d="M21,205h82.5c2.8,0,5,2.2,5,5v42c0,2.8-2.2,5-5,5H21c-2.8,0-5-2.2-5-5v-42C16,207.2,18.2,205,21,205z"/>
	<path class="st0" d="M115.5,205h42c2.8,0,5,2.2,5,5v42c0,2.8-2.2,5-5,5h-42c-2.8,0-5-2.2-5-5v-42C110.5,207.2,112.7,205,115.5,205z
		"/>
	<path class="st0" d="M169.5,205h42c2.8,0,5,2.2,5,5v42c0,2.8-2.2,5-5,5h-42c-2.8,0-5-2.2-5-5v-42C164.5,207.2,166.7,205,169.5,205z
		"/>
	<path class="st0" d="M223.5,205h42c2.8,0,5,2.2,5,5v42c0,2.8-2.2,5-5,5h-42c-2.8,0-5-2.2-5-5v-42C218.5,207.2,220.7,205,223.5,205z
		"/>
	<path class="st0" d="M277.5,205h42c2.8,0,5,2.2,5,5v42c0,2.8-2.2,5-5,5h-42c-2.8,0-5-2.2-5-5v-42C272.5,207.2,274.7,205,277.5,205z
		"/>
	<path class="st0" d="M331.5,205h42c2.8,0,5,2.2,5,5v42c0,2.8-2.2,5-5,5h-42c-2.8,0-5-2.2-5-5v-42C326.5,207.2,328.7,205,331.5,205z
		"/>
	<path class="st0" d="M385.5,205h42c2.8,0,5,2.2,5,5v42c0,2.8-2.2,5-5,5h-42c-2.8,0-5-2.2-5-5v-42C380.5,207.2,382.7,205,385.5,205z
		"/>
	<path class="st0" d="M439.5,205h42c2.8,0,5,2.2,5,5v42c0,2.8-2.2,5-5,5h-42c-2.8,0-5-2.2-5-5v-42C434.5,207.2,436.7,205,439.5,205z
		"/>
	<path class="st0" d="M493.5,205h42c2.8,0,5,2.2,5,5v42c0,2.8-2.2,5-5,5h-42c-2.8,0-5-2.2-5-5v-42C488.5,207.2,490.7,205,493.5,205z
		"/>
	<path class="st0" d="M547.5,205h42c2.8,0,5,2.2,5,5v42c0,2.8-2.2,5-5,5h-42c-2.8,0-5-2.2-5-5v-42C542.5,207.2,544.7,205,547.5,205z
		"/>
	<path class="st0" d="M601.5,205h42c2.8,0,5,2.2,5,5v42c0,2.8-2.2,5-5,5h-42c-2.8,0-5-2.2-5-5v-42C596.5,207.2,598.7,205,601.5,205z
		"/>
	<path class="st0" d="M655.5,205h42c2.8,0,5,2.2,5,5v42c0,2.8-2.2,5-5,5h-42c-2.8,0-5-2.2-5-5v-42C650.5,207.2,652.7,205,655.5,205z
		"/>
	<path class="st0" d="M709.5,205H819c2.8,0,5,2.2,5,5v42c0,2.8-2.2,5-5,5H709.5c-2.8,0-5-2.2-5-5v-42
		C704.5,207.2,706.7,205,709.5,205z"/>
	<path class="st0" d="M1020,205h42c2.8,0,5,2.2,5,5v42c0,2.8-2.2,5-5,5h-42c-2.8,0-5-2.2-5-5v-42C1015,207.2,1017.2,205,1020,205z"
		/>
	<path class="st0" d="M1074,205h42c2.8,0,5,2.2,5,5v42c0,2.8-2.2,5-5,5h-42c-2.8,0-5-2.2-5-5v-42C1069,207.2,1071.2,205,1074,205z"
		/>
	<path class="st0" d="M1128,205h42c2.8,0,5,2.2,5,5v42c0,2.8-2.2,5-5,5h-42c-2.8,0-5-2.2-5-5v-42C1123,207.2,1125.2,205,1128,205z"
		/>
	<path class="st0" d="M21,259h109.5c2.8,0,5,2.2,5,5v42c0,2.8-2.2,5-5,5H21c-2.8,0-5-2.2-5-5v-42C16,261.2,18.2,259,21,259z"/>
	<path class="st0" d="M142.5,259h42c2.8,0,5,2.2,5,5v42c0,2.8-2.2,5-5,5h-42c-2.8,0-5-2.2-5-5v-42C137.5,261.2,139.7,259,142.5,259z
		"/>
	<path class="st0" d="M196.5,259h42c2.8,0,5,2.2,5,5v42c0,2.8-2.2,5-5,5h-42c-2.8,0-5-2.2-5-5v-42C191.5,261.2,193.7,259,196.5,259z
		"/>
	<path class="st0" d="M250.5,259h42c2.8,0,5,2.2,5,5v42c0,2.8-2.2,5-5,5h-42c-2.8,0-5-2.2-5-5v-42C245.5,261.2,247.7,259,250.5,259z
		"/>
	<path class="st0" d="M304.5,259h42c2.8,0,5,2.2,5,5v42c0,2.8-2.2,5-5,5h-42c-2.8,0-5-2.2-5-5v-42C299.5,261.2,301.7,259,304.5,259z
		"/>
	<path class="st0" d="M358.5,259h42c2.8,0,5,2.2,5,5v42c0,2.8-2.2,5-5,5h-42c-2.8,0-5-2.2-5-5v-42C353.5,261.2,355.7,259,358.5,259z
		"/>
	<path class="st0" d="M412.5,259h42c2.8,0,5,2.2,5,5v42c0,2.8-2.2,5-5,5h-42c-2.8,0-5-2.2-5-5v-42C407.5,261.2,409.7,259,412.5,259z
		"/>
	<path class="st0" d="M466.5,259h42c2.8,0,5,2.2,5,5v42c0,2.8-2.2,5-5,5h-42c-2.8,0-5-2.2-5-5v-42C461.5,261.2,463.7,259,466.5,259z
		"/>
	<path class="st0" d="M520.5,259h42c2.8,0,5,2.2,5,5v42c0,2.8-2.2,5-5,5h-42c-2.8,0-5-2.2-5-5v-42C515.5,261.2,517.7,259,520.5,259z
		"/>
	<path class="st0" d="M574.5,259h42c2.8,0,5,2.2,5,5v42c0,2.8-2.2,5-5,5h-42c-2.8,0-5-2.2-5-5v-42C569.5,261.2,571.7,259,574.5,259z
		"/>
	<path class="st0" d="M628.5,259h42c2.8,0,5,2.2,5,5v42c0,2.8-2.2,5-5,5h-42c-2.8,0-5-2.2-5-5v-42C623.5,261.2,625.7,259,628.5,259z
		"/>
	<path class="st0" d="M682.5,259H819c2.8,0,5,2.2,5,5v42c0,2.8-2.2,5-5,5H682.5c-2.8,0-5-2.2-5-5v-42
		C677.5,261.2,679.7,259,682.5,259z"/>
	<path class="st0" d="M898.5,259h42c2.8,0,5,2.2,5,5v42c0,2.8-2.2,5-5,5h-42c-2.8,0-5-2.2-5-5v-42C893.5,261.2,895.7,259,898.5,259z
		"/>
	<path class="st0" d="M1020,259h42c2.8,0,5,2.2,5,5v42c0,2.8-2.2,5-5,5h-42c-2.8,0-5-2.2-5-5v-42C1015,261.2,1017.2,259,1020,259z"
		/>
	<path class="st0" d="M1074,259h42c2.8,0,5,2.2,5,5v42c0,2.8-2.2,5-5,5h-42c-2.8,0-5-2.2-5-5v-42C1069,261.2,1071.2,259,1074,259z"
		/>
	<path class="st0" d="M1128,259h42c2.8,0,5,2.2,5,5v42c0,2.8-2.2,5-5,5h-42c-2.8,0-5-2.2-5-5v-42C1123,261.2,1125.2,259,1128,259z"
		/>
	<path class="st0" d="M1182,259h42c2.8,0,5,2.2,5,5v96c0,2.8-2.2,5-5,5h-42c-2.8,0-5-2.2-5-5v-96C1177,261.2,1179.2,259,1182,259z"
		/>
	<path class="st0" d="M21,313h55.5c2.8,0,5,2.2,5,5v42c0,2.8-2.2,5-5,5H21c-2.8,0-5-2.2-5-5v-42C16,315.2,18.2,313,21,313z"/>
	<path class="st0" d="M88.5,313H144c2.8,0,5,2.2,5,5v42c0,2.8-2.2,5-5,5H88.5c-2.8,0-5-2.2-5-5v-42C83.5,315.2,85.7,313,88.5,313z"
		/>
	<path class="st0" d="M156,313h55.5c2.8,0,5,2.2,5,5v42c0,2.8-2.2,5-5,5H156c-2.8,0-5-2.2-5-5v-42C151,315.2,153.2,313,156,313z"/>
	<path class="st0" d="M223.5,313H549c2.8,0,5,2.2,5,5v42c0,2.8-2.2,5-5,5H223.5c-2.8,0-5-2.2-5-5v-42
		C218.5,315.2,220.7,313,223.5,313z"/>
	<path class="st0" d="M561,313h55.5c2.8,0,5,2.2,5,5v42c0,2.8-2.2,5-5,5H561c-2.8,0-5-2.2-5-5v-42C556,315.2,558.2,313,561,313z"/>
	<path class="st0" d="M628.5,313H684c2.8,0,5,2.2,5,5v42c0,2.8-2.2,5-5,5h-55.5c-2.8,0-5-2.2-5-5v-42
		C623.5,315.2,625.7,313,628.5,313z"/>
	<path class="st0" d="M696,313h55.5c2.8,0,5,2.2,5,5v42c0,2.8-2.2,5-5,5H696c-2.8,0-5-2.2-5-5v-42C691,315.2,693.2,313,696,313z"/>
	<path class="st0" d="M763.5,313H819c2.8,0,5,2.2,5,5v42c0,2.8-2.2,5-5,5h-55.5c-2.8,0-5-2.2-5-5v-42
		C758.5,315.2,760.7,313,763.5,313z"/>
	<path class="st0" d="M844.5,313h42c2.8,0,5,2.2,5,5v42c0,2.8-2.2,5-5,5h-42c-2.8,0-5-2.2-5-5v-42C839.5,315.2,841.7,313,844.5,313z
		"/>
	<path class="st0" d="M898.5,313h42c2.8,0,5,2.2,5,5v42c0,2.8-2.2,5-5,5h-42c-2.8,0-5-2.2-5-5v-42C893.5,315.2,895.7,313,898.5,313z
		"/>
	<path class="st0" d="M952.5,313h42c2.8,0,5,2.2,5,5v42c0,2.8-2.2,5-5,5h-42c-2.8,0-5-2.2-5-5v-42C947.5,315.2,949.7,313,952.5,313z
		"/>
	<path class="st0" d="M1020,313h96c2.8,0,5,2.2,5,5v42c0,2.8-2.2,5-5,5h-96c-2.8,0-5-2.2-5-5v-42C1015,315.2,1017.2,313,1020,313z"
		/>
	<path class="st0" d="M1128,313h42c2.8,0,5,2.2,5,5v42c0,2.8-2.2,5-5,5h-42c-2.8,0-5-2.2-5-5v-42C1123,315.2,1125.2,313,1128,313z"
		/>
</g>
</svg>
