<?xml version="1.0" encoding="utf-8"?>
<!-- Generator: Adobe Illustrator 26.0.3, SVG Export Plug-In . SVG Version: 6.00 Build 0)  -->
<svg version="1.1" id="Layer_1" xmlns="http://www.w3.org/2000/svg" xmlns:xlink="http://www.w3.org/1999/xlink" x="0px" y="0px"
	 viewBox="0 0 993.9 410" style="enable-background:new 0 0 993.9 410;" xml:space="preserve">
<g>
	<path d="M87.2,102.7h-42c-3.3,0-6-2.7-6-6v-42c0-3.3,2.7-6,6-6h42c3.3,0,6,2.7,6,6v42C93.2,100,90.5,102.7,87.2,102.7z M45.2,50.7
		c-2.2,0-4,1.8-4,4v42c0,2.2,1.8,4,4,4h42c2.2,0,4-1.8,4-4v-42c0-2.2-1.8-4-4-4H45.2z"/>
	<path d="M257.3,105.4h-42c-3.3,0-6-2.7-6-6v-42c0-3.3,2.7-6,6-6h42c3.3,0,6,2.7,6,6v42C263.3,102.7,260.6,105.4,257.3,105.4z
		 M215.3,53.4c-2.2,0-4,1.8-4,4v42c0,2.2,1.8,4,4,4h42c2.2,0,4-1.8,4-4v-42c0-2.2-1.8-4-4-4C257.3,53.4,215.3,53.4,215.3,53.4z"/>
	<path d="M767.6,105.4h-42c-3.3,0-6-2.7-6-6v-42c0-3.3,2.7-6,6-6h42c3.3,0,6,2.7,6,6v42C773.6,102.7,770.9,105.4,767.6,105.4z
		 M725.6,53.4c-2.2,0-4,1.8-4,4v42c0,2.2,1.8,4,4,4h42c2.2,0,4-1.8,4-4v-42c0-2.2-1.8-4-4-4C767.6,53.4,725.6,53.4,725.6,53.4z"/>
	<path d="M149.3,108.1h-42c-3.3,0-6-2.7-6-6v-42c0-3.3,2.7-6,6-6h42c3.3,0,6,2.7,6,6v42C155.3,105.4,152.6,108.1,149.3,108.1z
		 M107.3,56.1c-2.2,0-4,1.8-4,4v42c0,2.2,1.8,4,4,4h42c2.2,0,4-1.8,4-4v-42c0-2.2-1.8-4-4-4H107.3z"/>
	<path d="M203.3,108.1h-42c-3.3,0-6-2.7-6-6v-42c0-3.3,2.7-6,6-6h42c3.3,0,6,2.7,6,6v42C209.3,105.4,206.6,108.1,203.3,108.1z
		 M161.3,56.1c-2.2,0-4,1.8-4,4v42c0,2.2,1.8,4,4,4h42c2.2,0,4-1.8,4-4v-42c0-2.2-1.8-4-4-4H161.3z"/>
	<path d="M821.6,108.1h-42c-3.3,0-6-2.7-6-6v-42c0-3.3,2.7-6,6-6h42c3.3,0,6,2.7,6,6v42C827.6,105.4,824.9,108.1,821.6,108.1z
		 M779.6,56.1c-2.2,0-4,1.8-4,4v42c0,2.2,1.8,4,4,4h42c2.2,0,4-1.8,4-4v-42c0-2.2-1.8-4-4-4H779.6z"/>
	<path d="M929.6,108.1h-96c-3.3,0-6-2.7-6-6v-42c0-3.3,2.7-6,6-6h96c3.3,0,6,2.7,6,6v42C935.6,105.4,932.9,108.1,929.6,108.1z
		 M833.6,56.1c-2.2,0-4,1.8-4,4v42c0,2.2,1.8,4,4,4h96c2.2,0,4-1.8,4-4v-42c0-2.2-1.8-4-4-4H833.6z"/>
	<path d="M76.4,156.7h-42c-3.3,0-6-2.7-6-6v-42c0-3.3,2.7-6,6-6h42c3.3,0,6,2.7,6,6v42C82.4,154,79.7,156.7,76.4,156.7z M34.4,104.7
		c-2.2,0-4,1.8-4,4v42c0,2.2,1.8,4,4,4h42c2.2,0,4-1.8,4-4v-42c0-2.2-1.8-4-4-4H34.4z"/>
	<path d="M759.5,159.4h-42c-3.3,0-6-2.7-6-6v-42c0-3.3,2.7-6,6-6h42c3.3,0,6,2.7,6,6v42C765.5,156.7,762.8,159.4,759.5,159.4z
		 M717.5,107.4c-2.2,0-4,1.8-4,4v42c0,2.2,1.8,4,4,4h42c2.2,0,4-1.8,4-4v-42c0-2.2-1.8-4-4-4H717.5z"/>
	<path d="M165.5,162.1h-69c-3.3,0-6-2.7-6-6v-42c0-3.3,2.7-6,6-6h69c3.3,0,6,2.7,6,6v42C171.5,159.4,168.8,162.1,165.5,162.1z
		 M96.5,110.1c-2.2,0-4,1.8-4,4v42c0,2.2,1.8,4,4,4h69c2.2,0,4-1.8,4-4v-42c0-2.2-1.8-4-4-4C165.5,110.1,96.5,110.1,96.5,110.1z"/>
	<path d="M219.5,162.1h-42c-3.3,0-6-2.7-6-6v-42c0-3.3,2.7-6,6-6h42c3.3,0,6,2.7,6,6v42C225.5,159.4,222.8,162.1,219.5,162.1z
		 M177.5,110.1c-2.2,0-4,1.8-4,4v42c0,2.2,1.8,4,4,4h42c2.2,0,4-1.8,4-4v-42c0-2.2-1.8-4-4-4C219.5,110.1,177.5,110.1,177.5,110.1z"
		/>
	<path d="M813.5,162.1h-42c-3.3,0-6-2.7-6-6v-42c0-3.3,2.7-6,6-6h42c3.3,0,6,2.7,6,6v42C819.5,159.4,816.8,162.1,813.5,162.1z
		 M771.5,110.1c-2.2,0-4,1.8-4,4v42c0,2.2,1.8,4,4,4h42c2.2,0,4-1.8,4-4v-42c0-2.2-1.8-4-4-4C813.5,110.1,771.5,110.1,771.5,110.1z"
		/>
	<path d="M867.5,162.1h-42c-3.3,0-6-2.7-6-6v-42c0-3.3,2.7-6,6-6h42c3.3,0,6,2.7,6,6v42C873.5,159.4,870.8,162.1,867.5,162.1z
		 M825.5,110.1c-2.2,0-4,1.8-4,4v42c0,2.2,1.8,4,4,4h42c2.2,0,4-1.8,4-4v-42c0-2.2-1.8-4-4-4C867.5,110.1,825.5,110.1,825.5,110.1z"
		/>
	<path d="M948.5,162.1h-69c-3.3,0-6-2.7-6-6v-42c0-3.3,2.7-6,6-6h69c3.3,0,6,2.7,6,6v42C954.5,159.4,951.8,162.1,948.5,162.1z
		 M879.5,110.1c-2.2,0-4,1.8-4,4v42c0,2.2,1.8,4,4,4h69c2.2,0,4-1.8,4-4v-42c0-2.2-1.8-4-4-4C948.5,110.1,879.5,110.1,879.5,110.1z"
		/>
	<path d="M65.6,210.7h-42c-3.3,0-6-2.7-6-6v-42c0-3.3,2.7-6,6-6h42c3.3,0,6,2.7,6,6v42C71.6,208,68.9,210.7,65.6,210.7z M23.6,158.7
		c-2.2,0-4,1.8-4,4v42c0,2.2,1.8,4,4,4h42c2.2,0,4-1.8,4-4v-42c0-2.2-1.8-4-4-4H23.6z"/>
	<path d="M168.2,216.1H85.7c-3.3,0-6-2.7-6-6v-42c0-3.3,2.7-6,6-6h82.5c3.3,0,6,2.7,6,6v42C174.2,213.4,171.5,216.1,168.2,216.1z
		 M85.7,164.1c-2.2,0-4,1.8-4,4v42c0,2.2,1.8,4,4,4h82.5c2.2,0,4-1.8,4-4v-42c0-2.2-1.8-4-4-4H85.7z"/>
	<path d="M222.2,216.1h-42c-3.3,0-6-2.7-6-6v-42c0-3.3,2.7-6,6-6h42c3.3,0,6,2.7,6,6v42C228.2,213.4,225.5,216.1,222.2,216.1z
		 M180.2,164.1c-2.2,0-4,1.8-4,4v42c0,2.2,1.8,4,4,4h42c2.2,0,4-1.8,4-4v-42c0-2.2-1.8-4-4-4H180.2z"/>
	<path d="M781.1,216.1h-42c-3.3,0-6-2.7-6-6v-42c0-3.3,2.7-6,6-6h42c3.3,0,6,2.7,6,6v42C787.1,213.4,784.4,216.1,781.1,216.1z
		 M739.1,164.1c-2.2,0-4,1.8-4,4v42c0,2.2,1.8,4,4,4h42c2.2,0,4-1.8,4-4v-42c0-2.2-1.8-4-4-4H739.1z"/>
	<path d="M835.1,216.1h-42c-3.3,0-6-2.7-6-6v-42c0-3.3,2.7-6,6-6h42c3.3,0,6,2.7,6,6v42C841.1,213.4,838.4,216.1,835.1,216.1z
		 M793.1,164.1c-2.2,0-4,1.8-4,4v42c0,2.2,1.8,4,4,4h42c2.2,0,4-1.8,4-4v-42c0-2.2-1.8-4-4-4H793.1z"/>
	<path d="M956.6,216.1H847.1c-3.3,0-6-2.7-6-6v-42c0-3.3,2.7-6,6-6h109.5c3.3,0,6,2.7,6,6v42C962.6,213.4,959.9,216.1,956.6,216.1z
		 M847.1,164.1c-2.2,0-4,1.8-4,4v42c0,2.2,1.8,4,4,4h109.5c2.2,0,4-1.8,4-4v-42c0-2.2-1.8-4-4-4H847.1z"/>
	<path d="M181.7,270.1H72.2c-3.3,0-6-2.7-6-6v-42c0-3.3,2.7-6,6-6h109.5c3.3,0,6,2.7,6,6v42C187.7,267.4,185,270.1,181.7,270.1z
		 M72.2,218.1c-2.2,0-4,1.8-4,4v42c0,2.2,1.8,4,4,4h109.5c2.2,0,4-1.8,4-4v-42c0-2.2-1.8-4-4-4H72.2z"/>
	<path d="M235.7,270.1h-42c-3.3,0-6-2.7-6-6v-42c0-3.3,2.7-6,6-6h42c3.3,0,6,2.7,6,6v42C241.7,267.4,239,270.1,235.7,270.1z
		 M193.7,218.1c-2.2,0-4,1.8-4,4v42c0,2.2,1.8,4,4,4h42c2.2,0,4-1.8,4-4v-42c0-2.2-1.8-4-4-4H193.7z"/>
	<path d="M764.9,270.1h-42c-3.3,0-6-2.7-6-6v-42c0-3.3,2.7-6,6-6h42c3.3,0,6,2.7,6,6v42C770.9,267.4,768.2,270.1,764.9,270.1z
		 M722.9,218.1c-2.2,0-4,1.8-4,4v42c0,2.2,1.8,4,4,4h42c2.2,0,4-1.8,4-4v-42c0-2.2-1.8-4-4-4H722.9z"/>
	<path d="M818.9,270.1h-42c-3.3,0-6-2.7-6-6v-42c0-3.3,2.7-6,6-6h42c3.3,0,6,2.7,6,6v42C824.9,267.4,822.2,270.1,818.9,270.1z
		 M776.9,218.1c-2.2,0-4,1.8-4,4v42c0,2.2,1.8,4,4,4h42c2.2,0,4-1.8,4-4v-42c0-2.2-1.8-4-4-4H776.9z"/>
	<path d="M913.4,270.1h-82.5c-3.3,0-6-2.7-6-6v-42c0-3.3,2.7-6,6-6h82.5c3.3,0,6,2.7,6,6v42C919.4,267.4,916.7,270.1,913.4,270.1z
		 M830.9,218.1c-2.2,0-4,1.8-4,4v42c0,2.2,1.8,4,4,4h82.5c2.2,0,4-1.8,4-4v-42c0-2.2-1.8-4-4-4H830.9z"/>
	<path d="M967.4,270.1h-42c-3.3,0-6-2.7-6-6v-42c0-3.3,2.7-6,6-6h42c3.3,0,6,2.7,6,6v42C973.4,267.4,970.7,270.1,967.4,270.1z
		 M925.4,218.1c-2.2,0-4,1.8-4,4v42c0,2.2,1.8,4,4,4h42c2.2,0,4-1.8,4-4v-42c0-2.2-1.8-4-4-4H925.4z"/>
	<path d="M141.2,324.1h-69c-3.3,0-6-2.7-6-6v-42c0-3.3,2.7-6,6-6h69c3.3,0,6,2.7,6,6v42C147.2,321.4,144.5,324.1,141.2,324.1z
		 M72.2,272.1c-2.2,0-4,1.8-4,4v42c0,2.2,1.8,4,4,4h69c2.2,0,4-1.8,4-4v-42c0-2.2-1.8-4-4-4H72.2z"/>
	<path d="M948.5,324.1h-69c-3.3,0-6-2.7-6-6v-42c0-3.3,2.7-6,6-6h69c3.3,0,6,2.7,6,6v42C954.5,321.4,951.8,324.1,948.5,324.1z
		 M879.5,272.1c-2.2,0-4,1.8-4,4v42c0,2.2,1.8,4,4,4h69c2.2,0,4-1.8,4-4v-42c0-2.2-1.8-4-4-4H879.5z"/>
	<path d="M312,119.7c-0.4,0-0.8-0.1-1.2-0.2l-41.1-8.7c-1.6-0.3-2.9-1.2-3.7-2.6c-0.8-1.3-1.2-2.9-0.9-4.5l8.7-41.1
		c0.7-3.2,3.9-5.3,7.1-4.6l41.1,8.7c3.2,0.7,5.3,3.9,4.6,7.1l-8.7,41.1C317.3,117.7,314.9,119.7,312,119.7z M279.7,59.8
		c-1.8,0-3.5,1.3-3.9,3.1l-8.7,41.1c-0.2,1.1,0,2.1,0.6,3c0.6,0.9,1.5,1.5,2.5,1.8l41.1,8.7c1.1,0.2,2.1,0,3-0.6
		c0.9-0.6,1.5-1.5,1.8-2.5l8.7-41.1c0.5-2.2-0.9-4.3-3.1-4.7l-41.1-8.7C280.3,59.8,280,59.8,279.7,59.8z"/>
	<path d="M364.9,130.9c-0.4,0-0.8-0.1-1.3-0.2l-41.1-8.7c-3.2-0.7-5.3-3.9-4.6-7.1l8.7-41.1c0.7-3.2,3.9-5.3,7.1-4.6l41.1,8.7
		c3.2,0.7,5.3,3.9,4.6,7.1l-8.7,41.1c-0.3,1.6-1.2,2.9-2.6,3.7C367.2,130.6,366.1,130.8,364.9,130.9z M332.6,71.1
		c-1.8,0-3.5,1.3-3.9,3.1l-8.7,41.1c-0.5,2.2,0.9,4.3,3.1,4.7l41.1,8.7c1.1,0.2,2.1,0,3-0.6c0.9-0.6,1.5-1.5,1.8-2.5l8.7-41.1
		c0.5-2.2-0.9-4.3-3.1-4.7l-41.1-8.7C333.1,71.1,332.8,71,332.6,71.1z"/>
	<path d="M417.7,142.1c-0.4,0-0.8-0.1-1.2-0.2l-41.1-8.7c-3.2-0.7-5.3-3.9-4.6-7.1l8.7-41.1c0.7-3.2,3.9-5.3,7.1-4.6l41.1,8.7
		c1.6,0.3,2.9,1.2,3.7,2.6s1.2,2.9,0.9,4.5l-8.7,41.1C423,140.2,420.5,142.1,417.7,142.1z M385.4,82.3c-1.8,0-3.5,1.3-3.9,3.1
		l-8.7,41.1c-0.5,2.2,0.9,4.3,3.1,4.7l41.1,8.7c2.2,0.5,4.3-0.9,4.7-3.1l8.7-41.1c0.2-1.1,0-2.1-0.6-3c-0.6-0.9-1.5-1.5-2.5-1.8
		l-41.1-8.7C385.9,82.3,385.6,82.2,385.4,82.3z"/>
	<path d="M470.6,153.4c-0.4,0-0.8-0.1-1.3-0.2l-41.1-8.7c-3.2-0.7-5.3-3.9-4.6-7.1l8.7-41.1c0.7-3.2,3.9-5.3,7.1-4.6l41.1,8.7
		c3.2,0.7,5.3,3.9,4.6,7.1l-8.7,41.1c-0.3,1.6-1.2,2.9-2.6,3.7C472.8,153,471.7,153.3,470.6,153.4z M438.2,93.5
		c-1.8,0-3.5,1.3-3.9,3.1l-8.7,41.1c-0.5,2.2,0.9,4.3,3.1,4.7l41.1,8.7c1.1,0.2,2.1,0,3-0.6c0.9-0.6,1.5-1.5,1.8-2.5l8.7-41.1
		c0.5-2.2-0.9-4.3-3.1-4.7L439,93.6C438.7,93.5,438.4,93.5,438.2,93.5z"/>
	<path d="M277,167.4c-0.4,0-0.8-0.1-1.2-0.2l-41.1-8.7c-3.2-0.7-5.3-3.9-4.6-7.1l8.7-41.1c0.7-3.2,3.9-5.3,7.1-4.6l41.1,8.7
		c1.6,0.3,2.9,1.2,3.7,2.6c0.8,1.3,1.2,2.9,0.9,4.5l-8.7,41.1C282.3,165.5,279.9,167.4,277,167.4z M244.7,107.6
		c-1.8,0-3.5,1.3-3.9,3.1l-8.7,41.1c-0.5,2.2,0.9,4.3,3.1,4.7l41.1,8.7c2.2,0.5,4.3-0.9,4.7-3.1l8.7-41.1c0.5-2.2-0.9-4.3-3.1-4.7
		l-41.1-8.7C245.3,107.6,245,107.6,244.7,107.6z"/>
	<path d="M329.9,178.7c-0.4,0-0.8-0.1-1.3-0.2l-41.1-8.7c-3.2-0.7-5.3-3.9-4.6-7.1l8.7-41.1c0.7-3.2,3.9-5.3,7.1-4.6l41.1,8.7
		c3.2,0.7,5.3,3.9,4.6,7.1l-8.7,41.1c-0.3,1.6-1.2,2.9-2.6,3.7C332.2,178.3,331.1,178.6,329.9,178.7z M297.6,118.8
		c-1.8,0-3.5,1.3-3.9,3.1l-8.7,41.1c-0.5,2.2,0.9,4.3,3.1,4.7l41.1,8.7c1.1,0.2,2.1,0,3-0.6c0.9-0.6,1.5-1.5,1.8-2.5l8.7-41.1
		c0.5-2.2-0.9-4.3-3.1-4.7l-41.1-8.7C298.1,118.8,297.8,118.8,297.6,118.8z"/>
	<path d="M382.8,189.9c-0.4,0-0.8-0.1-1.3-0.2l-41.1-8.7c-3.2-0.7-5.3-3.9-4.6-7.1l8.7-41.1c0.7-3.2,3.9-5.3,7.1-4.6l41.1,8.7
		c3.2,0.7,5.3,3.9,4.6,7.1l-8.7,41.1c-0.3,1.6-1.2,2.9-2.6,3.7C385,189.6,383.9,189.8,382.8,189.9z M350.4,130.1
		c-1.8,0-3.5,1.3-3.9,3.1l-8.7,41.1c-0.5,2.2,0.9,4.3,3.1,4.7l41.1,8.7c1.1,0.2,2.1,0,3-0.6c0.9-0.6,1.5-1.5,1.8-2.5l8.7-41.1
		c0.5-2.2-0.9-4.3-3.1-4.7l-41.1-8.7C350.9,130.1,350.6,130,350.4,130.1z"/>
	<path d="M435.5,201.1c-0.4,0-0.8-0.1-1.2-0.2l-41.1-8.7c-3.2-0.7-5.3-3.9-4.6-7.1l8.7-41.1c0.7-3.2,3.9-5.3,7.1-4.6l41.1,8.7
		c3.2,0.7,5.3,3.9,4.6,7.1l-8.7,41.1C440.8,199.2,438.3,201.1,435.5,201.1z M403.2,141.3c-0.7,0.1-1.5,0.2-2.2,0.7
		c-0.9,0.6-1.5,1.5-1.8,2.5l-8.7,41.1c-0.5,2.2,0.9,4.3,3.1,4.7l41.1,8.7c2.2,0.5,4.3-0.9,4.7-3.1l8.7-41.1c0.2-1.1,0-2.1-0.6-3
		c-0.6-0.9-1.5-1.5-2.5-1.8l-41.1-8.7C403.7,141.3,403.4,141.2,403.2,141.3z"/>
	<path d="M279,223.1c-0.4,0-0.8-0.1-1.2-0.2l-41.1-8.7c-1.6-0.3-2.9-1.2-3.7-2.6c-0.8-1.3-1.2-2.9-0.9-4.5l8.7-41.1
		c0.3-1.6,1.2-2.9,2.6-3.7c1.3-0.8,2.9-1.2,4.5-0.9l41.1,8.7c3.2,0.7,5.3,3.9,4.6,7.1l-8.7,41.1C284.3,221.1,281.9,223,279,223.1z
		 M246.7,163.2c-0.7,0.1-1.5,0.2-2.2,0.7c-0.9,0.6-1.5,1.5-1.8,2.5l-8.7,41.1c-0.2,1.1,0,2.1,0.6,3c0.6,0.9,1.5,1.5,2.5,1.8
		l41.1,8.7c1.1,0.2,2.1,0,3-0.6c0.9-0.6,1.5-1.5,1.8-2.5l8.7-41.1c0.5-2.2-0.9-4.3-3.1-4.7l-41.1-8.7
		C247.2,163.2,246.9,163.2,246.7,163.2z"/>
	<path d="M331.9,234.3c-0.4,0-0.8-0.1-1.3-0.2l-41.1-8.7c-3.2-0.7-5.3-3.9-4.6-7.1l8.7-41.1c0.7-3.2,3.9-5.3,7.1-4.6l41.1,8.7
		c3.2,0.7,5.3,3.9,4.6,7.1l-8.7,41.1c-0.3,1.6-1.2,2.9-2.6,3.7C334.1,234,333.1,234.2,331.9,234.3z M299.5,174.5
		c-1.8,0-3.5,1.3-3.9,3.1l-8.7,41.1c-0.5,2.2,0.9,4.3,3.1,4.7l41.1,8.7c1.1,0.2,2.1,0,3-0.6c0.9-0.6,1.5-1.5,1.8-2.5l8.7-41.1
		c0.5-2.2-0.9-4.3-3.1-4.7l-41.1-8.7C300.1,174.5,299.8,174.4,299.5,174.5z"/>
	<path d="M384.6,245.5c-0.4,0-0.8-0.1-1.2-0.2l-41.1-8.7c-3.2-0.7-5.3-3.9-4.6-7.1l8.7-41.1c0.3-1.6,1.2-2.9,2.6-3.7
		c1.3-0.8,2.9-1.2,4.5-0.9l41.1,8.7c3.2,0.7,5.3,3.9,4.6,7.1l-8.7,41.1C390,243.6,387.5,245.5,384.6,245.5z M352.4,185.7
		c-0.7,0.1-1.5,0.2-2.2,0.7c-0.9,0.6-1.5,1.5-1.8,2.5l-8.7,41.1c-0.5,2.2,0.9,4.3,3.1,4.7l41.1,8.7c1.1,0.2,2.1,0,3-0.6
		c0.9-0.6,1.5-1.5,1.8-2.5l8.7-41.1c0.2-1.1,0-2.1-0.6-3c-0.6-0.9-1.5-1.5-2.5-1.8l-41.1-8.7C352.9,185.7,352.6,185.6,352.4,185.7z"
		/>
	<path d="M437.5,256.7c-0.4,0-0.8-0.1-1.2-0.2l-41.1-8.7c-1.6-0.3-2.9-1.2-3.7-2.6c-0.8-1.3-1.2-2.9-0.9-4.5l8.7-41.1
		c0.7-3.2,3.9-5.3,7.1-4.6l41.1,8.7c3.2,0.7,5.3,3.9,4.6,7.1l-8.7,41.1C442.8,254.8,440.3,256.7,437.5,256.7z M405.2,196.9
		c-0.7,0.1-1.5,0.2-2.2,0.7c-0.9,0.6-1.5,1.5-1.8,2.5l-8.7,41.1c-0.2,1.1,0,2.1,0.6,3c0.6,0.9,1.5,1.5,2.5,1.8l41.1,8.7
		c1.1,0.2,2.1,0,3-0.6c0.9-0.6,1.5-1.5,1.8-2.5l8.7-41.1c0.5-2.2-0.9-4.3-3.1-4.7L406,197C405.7,196.9,405.4,196.9,405.2,196.9z"/>
	<path d="M291.5,280.9c-0.4,0-0.8-0.1-1.2-0.2l-41.1-8.7c-3.2-0.7-5.3-3.9-4.6-7.1l8.7-41.1c0.3-1.6,1.2-2.9,2.6-3.7
		c1.3-0.8,2.9-1.2,4.5-0.9l41.1,8.7c3.2,0.7,5.3,3.9,4.6,7.1l-8.7,41.1C296.9,279,294.4,280.9,291.5,280.9z M259.3,221.1
		c-0.7,0.1-1.5,0.2-2.2,0.7c-0.9,0.6-1.5,1.5-1.8,2.5l-8.7,41.1c-0.5,2.2,0.9,4.3,3.1,4.7l41.1,8.7c2.2,0.5,4.3-0.9,4.7-3.1
		l8.7-41.1c0.5-2.2-0.9-4.3-3.1-4.7l-41.1-8.7C259.8,221.1,259.5,221.1,259.3,221.1z"/>
	<path d="M344.5,292.2c-0.4,0-0.8-0.1-1.3-0.2l-41.1-8.7c-3.2-0.7-5.3-3.9-4.6-7.1l8.7-41.1c0.7-3.2,3.9-5.3,7.1-4.6l41.1,8.7
		c3.2,0.7,5.3,3.9,4.6,7.1l-8.7,41.1c-0.3,1.6-1.2,2.9-2.6,3.7C346.7,291.8,345.6,292.1,344.5,292.2z M312.1,232.3
		c-1.8,0-3.5,1.3-3.9,3.1l-8.7,41.1c-0.5,2.2,0.9,4.3,3.1,4.7l41.1,8.7c1.1,0.2,2.1,0,3-0.6c0.9-0.6,1.5-1.5,1.8-2.5l8.7-41.1
		c0.5-2.2-0.9-4.3-3.1-4.7l-41.1-8.7C312.6,232.3,312.3,232.3,312.1,232.3z"/>
	<path d="M397.3,303.4c-0.4,0-0.8-0.1-1.3-0.2l-41.1-8.7c-3.2-0.7-5.3-3.9-4.6-7.1l8.7-41.1c0.7-3.2,3.9-5.3,7.1-4.6l41.1,8.7
		c3.2,0.7,5.3,3.9,4.6,7.1l-8.7,41.1c-0.3,1.6-1.2,2.9-2.6,3.7C399.5,303.1,398.4,303.3,397.3,303.4z M364.9,243.6
		c-1.8,0-3.5,1.3-3.9,3.1l-8.7,41.1c-0.5,2.2,0.9,4.3,3.1,4.7l41.1,8.7c1.1,0.2,2.1,0,3-0.6c0.9-0.6,1.5-1.5,1.8-2.5l8.7-41.1
		c0.5-2.2-0.9-4.3-3.1-4.7l-41.1-8.7C365.4,243.6,365.1,243.5,364.9,243.6z"/>
	<path d="M450,314.6c-0.4,0-0.8-0.1-1.2-0.2l-41.1-8.7c-3.2-0.7-5.3-3.9-4.6-7.1l8.7-41.1c0.7-3.2,3.9-5.3,7.1-4.6l41.1,8.7
		c3.2,0.7,5.3,3.9,4.6,7.1l-8.7,41.1C455.3,312.7,452.9,314.6,450,314.6z M417.7,254.8c-0.7,0.1-1.5,0.2-2.2,0.7
		c-0.9,0.6-1.5,1.5-1.8,2.5l-8.7,41.1c-0.2,1.1,0,2.1,0.6,3c0.6,0.9,1.5,1.5,2.5,1.8l41.1,8.7c2.2,0.5,4.3-0.9,4.7-3.1l8.7-41.1
		c0.5-2.2-0.9-4.3-3.1-4.7l-41.1-8.7C418.2,254.8,417.9,254.7,417.7,254.8z"/>
	<path d="M401.9,359.6c-0.4,0-0.8-0.1-1.3-0.2l-93.9-20c-1.6-0.3-2.9-1.2-3.7-2.6c-0.8-1.3-1.2-2.9-0.9-4.5l8.7-41.1
		c0.3-1.6,1.2-2.9,2.6-3.7c1.3-0.8,2.9-1.2,4.5-0.9l93.9,20c1.6,0.3,2.9,1.2,3.7,2.6c0.8,1.3,1.2,2.9,0.9,4.5l-8.7,41.1
		c-0.3,1.6-1.2,2.9-2.6,3.7C404.1,359.2,403,359.5,401.9,359.6z M316.7,288.5c-0.7,0.1-1.5,0.2-2.2,0.7c-0.9,0.6-1.5,1.5-1.8,2.5
		l-8.7,41.1c-0.2,1.1,0,2.1,0.6,3c0.6,0.9,1.5,1.5,2.5,1.8l93.9,20c1.1,0.2,2.1,0,3-0.6c0.9-0.6,1.5-1.5,1.8-2.5l8.7-41.1
		c0.5-2.2-0.9-4.3-3.1-4.7l-93.9-20C317.2,288.5,316.9,288.5,316.7,288.5z"/>
	<path d="M467.8,373.6c-0.4,0-0.8-0.1-1.2-0.2l-54.3-11.5c-3.2-0.7-5.3-3.9-4.6-7.1l8.7-41.1c0.7-3.2,3.9-5.3,7.1-4.6l54.3,11.5
		c3.2,0.7,5.3,3.9,4.6,7.1l-8.7,41.1C473.1,371.7,470.7,373.6,467.8,373.6z M422.3,311c-1.8,0-3.5,1.3-3.9,3.1l-8.7,41.1
		c-0.5,2.2,0.9,4.3,3.1,4.7l54.3,11.5c2.2,0.5,4.3-0.9,4.7-3.1l8.7-41.1c0.5-2.2-0.9-4.3-3.1-4.7L423.2,311
		C422.9,311,422.6,310.9,422.3,311z"/>
	<path d="M293.1,339.2c-0.4,0-0.8-0.1-1.3-0.2l-67.5-14.3c-1.6-0.3-2.9-1.2-3.7-2.6c-0.8-1.3-1.2-2.9-0.9-4.5l8.7-41.1
		c0.3-1.6,1.2-2.9,2.6-3.7c1.3-0.8,2.9-1.2,4.5-0.9l67.5,14.3c3.2,0.7,5.3,3.9,4.6,7.1l-8.7,41.1c-0.3,1.6-1.2,2.9-2.6,3.7
		C295.3,338.9,294.2,339.1,293.1,339.2z M234.3,273.8c-0.7,0.1-1.5,0.2-2.2,0.7c-0.9,0.6-1.5,1.5-1.8,2.5l-8.7,41.1
		c-0.2,1.1,0,2.1,0.6,3c0.6,0.9,1.5,1.5,2.5,1.8l67.5,14.3c2.2,0.5,4.3-0.9,4.7-3.1l8.7-41.1c0.5-2.2-0.9-4.3-3.1-4.7l-67.5-14.3
		C234.8,273.8,234.5,273.7,234.3,273.8z"/>
	<path d="M513.2,147c-2.8,0-5.3-1.9-5.9-4.8l-8.7-41.1c-0.3-1.6-0.1-3.2,0.9-4.5c0.8-1.3,2.2-2.3,3.7-2.6l41.1-8.7
		c3.2-0.7,6.4,1.4,7.1,4.6l8.7,41.1c0.7,3.2-1.4,6.4-4.6,7.1l-41.1,8.7C514.1,146.9,513.7,147,513.2,147z M503.6,96
		c-1.1,0.2-2,0.8-2.5,1.8c-0.6,0.9-0.8,2-0.6,3l8.7,41.1c0.5,2.2,2.6,3.5,4.7,3.1l41.1-8.7c2.2-0.5,3.5-2.6,3.1-4.7l-8.7-41.1
		c-0.5-2.2-2.6-3.5-4.7-3.1L503.6,96z"/>
	<path d="M566.1,135.8c-2.8,0-5.3-1.9-5.9-4.8l-8.7-41.1c-0.7-3.2,1.4-6.4,4.6-7.1l41.1-8.7c1.6-0.3,3.2-0.1,4.5,0.9
		c1.3,0.8,2.3,2.2,2.6,3.7l8.7,41.1c0.3,1.6,0.1,3.2-0.9,4.5c-0.8,1.3-2.2,2.3-3.7,2.6l-41.1,8.7
		C566.9,135.7,566.5,135.8,566.1,135.8z M556.5,84.8c-1.1,0.2-2,0.8-2.5,1.8c-0.6,0.9-0.8,2-0.6,3l8.7,41.1c0.5,2.2,2.6,3.5,4.7,3.1
		l41.1-8.7c1.1-0.2,2-0.8,2.5-1.8c0.6-0.9,0.8-2,0.6-3l-8.7-41.1c-0.2-1.1-0.8-2-1.8-2.5c-0.9-0.6-2-0.8-3-0.6L556.5,84.8z"/>
	<path d="M618.8,124.6c-1.1,0-2.3-0.3-3.3-0.9c-1.3-0.8-2.3-2.2-2.6-3.7l-8.7-41.1c-0.7-3.2,1.4-6.4,4.6-7.1l41.1-8.7
		c3.2-0.7,6.4,1.4,7.1,4.6l8.7,41.1c0.3,1.6,0.1,3.2-0.9,4.5c-0.8,1.3-2.2,2.3-3.7,2.6l-41.1,8.7
		C619.7,124.5,619.2,124.6,618.8,124.6z M609.3,73.5c-1.1,0.2-2,0.8-2.5,1.8c-0.6,0.9-0.8,2-0.6,3l8.7,41.1c0.2,1.1,0.8,2,1.8,2.5
		c0.9,0.6,2,0.8,3,0.6l41.1-8.7c1.1-0.2,2-0.8,2.5-1.8c0.6-0.9,0.8-2,0.6-3l-8.7-41.1c-0.5-2.2-2.6-3.5-4.7-3.1L609.3,73.5z"/>
	<path d="M671.7,113.3c-2.8,0-5.3-1.9-5.9-4.8l-8.7-41.1c-0.7-3.2,1.4-6.4,4.6-7.1l41.1-8.7c3.2-0.7,6.4,1.4,7.1,4.6l8.7,41.1
		c0.7,3.2-1.4,6.4-4.6,7.1l-41.1,8.7C672.5,113.3,672.1,113.3,671.7,113.3z M662.1,62.3c-2.2,0.5-3.5,2.6-3.1,4.7l8.7,41.1
		c0.5,2.2,2.6,3.5,4.7,3.1l41.1-8.7c1.1-0.2,2-0.8,2.5-1.8c0.6-0.9,0.8-2,0.6-3l-8.7-41.1c-0.5-2.2-2.6-3.5-4.7-3.1L662.1,62.3z"/>
	<path d="M503.3,204.3c-2.8,0-5.3-1.9-5.9-4.8l-8.7-41.1c-0.7-3.2,1.4-6.4,4.6-7.1l41.1-8.7c1.6-0.3,3.2-0.1,4.5,0.9
		c1.3,0.8,2.3,2.2,2.6,3.7l8.7,41.1c0.7,3.2-1.4,6.4-4.6,7.1l-41.1,8.7C504.2,204.3,503.8,204.3,503.3,204.3z M493.7,153.3
		c-1.1,0.2-2,0.8-2.5,1.8c-0.6,0.9-0.8,2-0.6,3l8.7,41.1c0.2,1.1,0.8,2,1.8,2.5c0.9,0.6,2,0.8,3,0.6l41.1-8.7
		c2.2-0.5,3.5-2.6,3.1-4.7l-8.7-41.1c-0.2-1.1-0.8-2-1.8-2.5c-0.9-0.6-2-0.8-3-0.6L493.7,153.3z"/>
	<path d="M556.1,193.1c-1.1,0-2.3-0.3-3.3-0.9c-1.3-0.8-2.3-2.2-2.6-3.7l-8.7-41.1c-0.7-3.2,1.4-6.4,4.6-7.1l41.1-8.7
		c3.2-0.7,6.4,1.4,7.1,4.6l8.7,41.1c0.3,1.6,0.1,3.2-0.9,4.5c-0.8,1.3-2.2,2.3-3.7,2.6l-41.1,8.7C557,193,556.5,193.1,556.1,193.1z
		 M546.6,142.1c-1.1,0.2-2,0.8-2.5,1.8c-0.6,0.9-0.8,2-0.6,3l8.7,41.1c0.2,1.1,0.8,2,1.8,2.5c0.9,0.6,2,0.8,3,0.6l41.1-8.7
		c1.1-0.2,2-0.8,2.5-1.8c0.6-0.9,0.8-2,0.6-3l-8.7-41.1c-0.2-1.1-0.8-2-1.8-2.5c-0.9-0.6-2-0.8-3-0.6L546.6,142.1z"/>
	<path d="M609,181.9c-2.8,0-5.3-1.9-5.9-4.8l-8.7-41.1c-0.7-3.2,1.4-6.4,4.6-7.1l41.1-8.7c3.2-0.7,6.4,1.4,7.1,4.6l8.7,41.1
		c0.7,3.2-1.4,6.4-4.6,7.1l-41.1,8.7C609.8,181.8,609.4,181.9,609,181.9z M599.4,130.9c-2.2,0.5-3.5,2.6-3.1,4.7l8.7,41.1
		c0.5,2.2,2.6,3.5,4.7,3.1l41.1-8.7c1.1-0.2,2-0.8,2.5-1.8c0.6-0.9,0.8-2,0.6-3l-8.7-41.1c-0.5-2.2-2.6-3.5-4.7-3.1L599.4,130.9z"/>
	<path d="M661.7,170.7c-1.1,0-2.3-0.3-3.3-0.9c-1.3-0.8-2.3-2.2-2.6-3.7l-8.7-41.1c-0.3-1.6-0.1-3.2,0.9-4.5
		c0.8-1.3,2.2-2.3,3.7-2.6l41.1-8.7c3.2-0.7,6.4,1.4,7.1,4.6l8.7,41.1c0.7,3.2-1.4,6.4-4.6,7.1l-41.1,8.7
		C662.6,170.6,662.1,170.7,661.7,170.7z M694.1,110.8c-0.3,0-0.5,0-0.8,0.1l-41.1,8.7c-1.1,0.2-2,0.8-2.5,1.8c-0.5,0.9-0.8,2-0.6,3
		l8.7,41.1c0.2,1.1,0.8,2,1.8,2.5c0.9,0.6,2,0.8,3,0.6l41.1-8.7c1.1-0.2,2-0.8,2.5-1.8c0.6-0.9,0.8-2,0.6-3L698,114
		C697.6,112.1,695.9,110.8,694.1,110.8z"/>
	<path d="M522.5,255.5c-2.8,0-5.3-1.9-5.9-4.8l-8.7-41.1c-0.7-3.2,1.4-6.4,4.6-7.1l41.1-8.7c3.2-0.7,6.4,1.4,7.1,4.6l8.7,41.1
		c0.7,3.2-1.4,6.4-4.6,7.1l-41.1,8.7C523.3,255.4,522.9,255.5,522.5,255.5z M512.9,204.4c-2.2,0.5-3.5,2.6-3.1,4.7l8.7,41.1
		c0.5,2.2,2.6,3.5,4.7,3.1l41.1-8.7c2.2-0.5,3.5-2.6,3.1-4.7l-8.7-41.1c-0.5-2.2-2.6-3.5-4.7-3.1L512.9,204.4z"/>
	<path d="M575.3,244.2c-2.8,0-5.3-1.9-5.9-4.8l-8.7-41.1c-0.7-3.2,1.4-6.4,4.6-7.1l41.1-8.7c3.2-0.7,6.4,1.4,7.1,4.6l8.7,41.1
		c0.7,3.2-1.4,6.4-4.6,7.1l-41.1,8.7C576.1,244.2,575.7,244.2,575.3,244.2z M565.7,193.2L565.7,193.2c-1.1,0.2-2,0.8-2.5,1.8
		c-0.6,0.9-0.8,2-0.6,3l8.7,41.1c0.2,1.1,0.8,2,1.8,2.5c0.9,0.6,2,0.8,3,0.6l41.1-8.7c1.1-0.2,2-0.8,2.5-1.8c0.6-0.9,0.8-2,0.6-3
		l-8.7-41.1c-0.5-2.2-2.6-3.5-4.7-3.1L565.7,193.2z"/>
	<path d="M628.1,233c-2.8,0-5.3-1.9-5.9-4.8l-8.7-41.1c-0.3-1.6-0.1-3.2,0.9-4.5c0.8-1.3,2.2-2.3,3.7-2.6l41.1-8.7
		c3.2-0.7,6.4,1.4,7.1,4.6L675,217c0.3,1.6,0.1,3.2-0.9,4.5c-0.8,1.3-2.2,2.3-3.7,2.6l-41.1,8.7C628.9,232.9,628.6,233,628.1,233z
		 M618.5,182c-1.1,0.2-2,0.8-2.5,1.8c-0.6,0.9-0.8,2-0.6,3l8.7,41.1c0.2,1.1,0.8,2,1.8,2.5c0.9,0.6,2,0.8,3,0.6l41.1-8.7
		c1.1-0.2,2-0.8,2.5-1.8c0.6-0.9,0.8-2,0.6-3l-8.7-41.1c-0.2-1.1-0.8-2-1.8-2.5c-0.9-0.6-2-0.8-3-0.6L618.5,182z"/>
	<path d="M681,221.8c-2.8,0-5.3-1.9-5.9-4.8l-8.7-41.1c-0.7-3.2,1.4-6.4,4.6-7.1l41.1-8.7c1.6-0.3,3.2-0.1,4.5,0.9
		c1.3,0.8,2.3,2.2,2.6,3.7l8.7,41.1c0.3,1.6,0.1,3.2-0.9,4.5c-0.8,1.3-2.2,2.3-3.7,2.6l-41.1,8.7C681.8,221.7,681.4,221.8,681,221.8
		z M671.3,170.8c-2.2,0.5-3.5,2.6-3.1,4.7l8.7,41.1c0.5,2.2,2.6,3.5,4.7,3.1l41.1-8.7c1.1-0.2,2-0.8,2.5-1.8c0.6-0.9,0.8-2,0.6-3
		l-8.7-41.1c-0.2-1.1-0.8-2-1.8-2.5c-0.9-0.6-2-0.8-3-0.6L671.3,170.8z"/>
	<path d="M510,313.3c-2.8,0-5.3-1.9-5.9-4.8l-8.7-41.1c-0.7-3.2,1.4-6.4,4.6-7.1l41.1-8.7c3.2-0.7,6.4,1.4,7.1,4.6l8.7,41.1
		c0.7,3.2-1.4,6.4-4.6,7.1l-41.1,8.7C510.8,313.3,510.4,313.3,510,313.3z M500.3,262.3c-1.1,0.2-2,0.8-2.5,1.8c-0.6,0.9-0.8,2-0.6,3
		l8.7,41.1c0.5,2.2,2.6,3.5,4.7,3.1l41.1-8.7c1.1-0.2,2-0.8,2.5-1.8c0.6-0.9,0.8-2,0.6-3l-8.7-41.1c-0.2-1.1-0.8-2-1.8-2.5
		c-0.9-0.6-2-0.8-3-0.6L500.3,262.3z"/>
	<path d="M562.8,302.1c-2.8,0-5.2-2-5.9-4.8l-8.7-41.1c-0.7-3.2,1.4-6.4,4.6-7.1l41.1-8.7c1.6-0.3,3.2-0.1,4.5,0.9
		c1.3,0.8,2.3,2.2,2.6,3.7l8.7,41.1c0.7,3.2-1.4,6.4-4.6,7.1L564,302C563.6,302,563.2,302.1,562.8,302.1z M553.2,251.1L553.2,251.1
		c-1.1,0.2-2,0.8-2.5,1.8c-0.6,0.9-0.8,2-0.6,3l8.7,41.1c0.5,2.2,2.6,3.5,4.7,3.1l41.1-8.7c1.1-0.2,2-0.8,2.5-1.8
		c0.6-0.9,0.8-2,0.6-3l-8.7-41.1c-0.2-1.1-0.8-2-1.8-2.5c-0.9-0.6-2-0.8-3-0.6L553.2,251.1z"/>
	<path d="M615.6,290.9c-2.8,0-5.3-1.9-5.9-4.8l-8.7-41.1c-0.7-3.2,1.4-6.4,4.6-7.1l41.1-8.7c3.2-0.7,6.4,1.4,7.1,4.6l8.7,41.1
		c0.7,3.2-1.4,6.4-4.6,7.1l-41.1,8.7C616.4,290.8,616,290.9,615.6,290.9z M606,239.9c-2.2,0.5-3.5,2.6-3.1,4.7l8.7,41.1
		c0.5,2.2,2.6,3.5,4.7,3.1l41.1-8.7c2.2-0.5,3.5-2.6,3.1-4.7l-8.7-41.1c-0.2-1.1-0.8-2-1.8-2.5c-0.9-0.6-2-0.8-3-0.6L606,239.9z"/>
	<path d="M668.4,279.7c-2.8,0-5.3-1.9-5.9-4.8l-8.7-41.1c-0.7-3.2,1.4-6.4,4.6-7.1l41.1-8.7c1.6-0.3,3.2-0.1,4.5,0.9
		c1.3,0.8,2.3,2.2,2.6,3.7l8.7,41.1c0.7,3.2-1.4,6.4-4.6,7.1l-41.1,8.7C669.2,279.6,668.8,279.7,668.4,279.7z M658.8,228.6
		c-1.1,0.2-2,0.8-2.5,1.8c-0.6,0.9-0.8,2-0.6,3l8.7,41.1c0.5,2.2,2.6,3.5,4.7,3.1l41.1-8.7c1.1-0.2,2-0.8,2.5-1.8
		c0.6-0.9,0.8-2,0.6-3l-8.7-41.1c-0.2-1.1-0.8-2-1.8-2.5c-0.9-0.6-2-0.8-3-0.6L658.8,228.6z"/>
	<path d="M521.2,366.2c-2.8,0-5.3-1.9-5.9-4.8l-8.7-41.1c-0.3-1.6-0.1-3.2,0.9-4.5c0.9-1.3,2.2-2.3,3.7-2.6l133.5-28.4
		c3.2-0.7,6.4,1.4,7.1,4.6l8.7,41.1c0.3,1.6,0.1,3.2-0.9,4.5c-0.8,1.3-2.2,2.3-3.7,2.6L522.4,366C522,366.1,521.6,366.2,521.2,366.2
		z M511.6,315.1L511.6,315.1c-2.2,0.5-3.5,2.6-3.1,4.7l8.7,41.1c0.5,2.2,2.6,3.5,4.7,3.1l133.5-28.4c1.1-0.2,2-0.8,2.5-1.8
		c0.6-0.9,0.8-2,0.6-3l-8.7-41.1c-0.5-2.2-2.6-3.5-4.7-3.1L511.6,315.1z"/>
	<path d="M669.5,337.4c-1.1,0-2.3-0.3-3.3-0.9c-1.3-0.8-2.3-2.2-2.6-3.7l-8.7-41.1c-0.7-3.2,1.4-6.4,4.6-7.1l67.5-14.3
		c1.6-0.3,3.2-0.1,4.5,0.9c1.3,0.8,2.3,2.2,2.6,3.7l8.7,41.1c0.7,3.2-1.4,6.4-4.6,7.1l-67.5,14.3
		C670.4,337.3,670.1,337.4,669.5,337.4z M660,286.3c-2.2,0.5-3.5,2.6-3.1,4.7l8.7,41.1c0.5,2.2,2.6,3.5,4.7,3.1l67.5-14.3
		c2.2-0.5,3.5-2.6,3.1-4.7l-8.7-41.1c-0.5-2.2-2.6-3.5-4.7-3.1L660,286.3z"/>
</g>
</svg>
