<?xml version="1.0" encoding="utf-8"?>
<!-- Generator: Adobe Illustrator 26.0.3, SVG Export Plug-In . SVG Version: 6.00 Build 0)  -->
<svg version="1.1" id="Layer_1" xmlns="http://www.w3.org/2000/svg" xmlns:xlink="http://www.w3.org/1999/xlink" x="0px" y="0px"
	 viewBox="0 0 894 300" style="enable-background:new 0 0 894 300;" xml:space="preserve">
<style type="text/css">
	.st0{fill:none;stroke:#000000;stroke-width:2;}
</style>
<path class="st0" d="M21,16h42c2.8,0,5,2.2,5,5v42c0,2.8-2.2,5-5,5H21c-2.8,0-5-2.2-5-5V21C16,18.2,18.2,16,21,16z"/>
<path class="st0" d="M75,16h42c2.8,0,5,2.2,5,5v42c0,2.8-2.2,5-5,5H75c-2.8,0-5-2.2-5-5V21C70,18.2,72.2,16,75,16z"/>
<path class="st0" d="M129,16h42c2.8,0,5,2.2,5,5v42c0,2.8-2.2,5-5,5h-42c-2.8,0-5-2.2-5-5V21C124,18.2,126.2,16,129,16z"/>
<path class="st0" d="M183,16h42c2.8,0,5,2.2,5,5v42c0,2.8-2.2,5-5,5h-42c-2.8,0-5-2.2-5-5V21C178,18.2,180.2,16,183,16z"/>
<path class="st0" d="M237,16h42c2.8,0,5,2.2,5,5v42c0,2.8-2.2,5-5,5h-42c-2.8,0-5-2.2-5-5V21C232,18.2,234.2,16,237,16z"/>
<path class="st0" d="M291,16h42c2.8,0,5,2.2,5,5v42c0,2.8-2.2,5-5,5h-42c-2.8,0-5-2.2-5-5V21C286,18.2,288.2,16,291,16z"/>
<path class="st0" d="M345,16h42c2.8,0,5,2.2,5,5v42c0,2.8-2.2,5-5,5h-42c-2.8,0-5-2.2-5-5V21C340,18.2,342.2,16,345,16z"/>
<path class="st0" d="M399,16h42c2.8,0,5,2.2,5,5v42c0,2.8-2.2,5-5,5h-42c-2.8,0-5-2.2-5-5V21C394,18.2,396.2,16,399,16z"/>
<path class="st0" d="M453,16h42c2.8,0,5,2.2,5,5v42c0,2.8-2.2,5-5,5h-42c-2.8,0-5-2.2-5-5V21C448,18.2,450.2,16,453,16z"/>
<path class="st0" d="M507,16h42c2.8,0,5,2.2,5,5v42c0,2.8-2.2,5-5,5h-42c-2.8,0-5-2.2-5-5V21C502,18.2,504.2,16,507,16z"/>
<path class="st0" d="M561,16h42c2.8,0,5,2.2,5,5v42c0,2.8-2.2,5-5,5h-42c-2.8,0-5-2.2-5-5V21C556,18.2,558.2,16,561,16z"/>
<path class="st0" d="M615,16h42c2.8,0,5,2.2,5,5v42c0,2.8-2.2,5-5,5h-42c-2.8,0-5-2.2-5-5V21C610,18.2,612.2,16,615,16z"/>
<path class="st0" d="M669,16h42c2.8,0,5,2.2,5,5v42c0,2.8-2.2,5-5,5h-42c-2.8,0-5-2.2-5-5V21C664,18.2,666.2,16,669,16z"/>
<path class="st0" d="M723,16h96c2.8,0,5,2.2,5,5v42c0,2.8-2.2,5-5,5h-96c-2.8,0-5-2.2-5-5V21C718,18.2,720.2,16,723,16z"/>
<path class="st0" d="M831,16h42c2.8,0,5,2.2,5,5v42c0,2.8-2.2,5-5,5h-42c-2.8,0-5-2.2-5-5V21C826,18.2,828.2,16,831,16z"/>
<path class="st0" d="M21,70h69c2.8,0,5,2.2,5,5v42c0,2.8-2.2,5-5,5H21c-2.8,0-5-2.2-5-5V75C16,72.2,18.2,70,21,70z"/>
<path class="st0" d="M102,70h42c2.8,0,5,2.2,5,5v42c0,2.8-2.2,5-5,5h-42c-2.8,0-5-2.2-5-5V75C97,72.2,99.2,70,102,70z"/>
<path class="st0" d="M156,70h42c2.8,0,5,2.2,5,5v42c0,2.8-2.2,5-5,5h-42c-2.8,0-5-2.2-5-5V75C151,72.2,153.2,70,156,70z"/>
<path class="st0" d="M210,70h42c2.8,0,5,2.2,5,5v42c0,2.8-2.2,5-5,5h-42c-2.8,0-5-2.2-5-5V75C205,72.2,207.2,70,210,70z"/>
<path class="st0" d="M264,70h42c2.8,0,5,2.2,5,5v42c0,2.8-2.2,5-5,5h-42c-2.8,0-5-2.2-5-5V75C259,72.2,261.2,70,264,70z"/>
<path class="st0" d="M318,70h42c2.8,0,5,2.2,5,5v42c0,2.8-2.2,5-5,5h-42c-2.8,0-5-2.2-5-5V75C313,72.2,315.2,70,318,70z"/>
<path class="st0" d="M372,70h42c2.8,0,5,2.2,5,5v42c0,2.8-2.2,5-5,5h-42c-2.8,0-5-2.2-5-5V75C367,72.2,369.2,70,372,70z"/>
<path class="st0" d="M426,70h42c2.8,0,5,2.2,5,5v42c0,2.8-2.2,5-5,5h-42c-2.8,0-5-2.2-5-5V75C421,72.2,423.2,70,426,70z"/>
<path class="st0" d="M480,70h42c2.8,0,5,2.2,5,5v42c0,2.8-2.2,5-5,5h-42c-2.8,0-5-2.2-5-5V75C475,72.2,477.2,70,480,70z"/>
<path class="st0" d="M534,70h42c2.8,0,5,2.2,5,5v42c0,2.8-2.2,5-5,5h-42c-2.8,0-5-2.2-5-5V75C529,72.2,531.2,70,534,70z"/>
<path class="st0" d="M588,70h42c2.8,0,5,2.2,5,5v42c0,2.8-2.2,5-5,5h-42c-2.8,0-5-2.2-5-5V75C583,72.2,585.2,70,588,70z"/>
<path class="st0" d="M642,70h42c2.8,0,5,2.2,5,5v42c0,2.8-2.2,5-5,5h-42c-2.8,0-5-2.2-5-5V75C637,72.2,639.2,70,642,70z"/>
<path class="st0" d="M696,70h42c2.8,0,5,2.2,5,5v42c0,2.8-2.2,5-5,5h-42c-2.8,0-5-2.2-5-5V75C691,72.2,693.2,70,696,70z"/>
<path class="st0" d="M750,70h69c2.8,0,5,2.2,5,5v42c0,2.8-2.2,5-5,5h-69c-2.8,0-5-2.2-5-5V75C745,72.2,747.2,70,750,70z"/>
<path class="st0" d="M831,70h42c2.8,0,5,2.2,5,5v42c0,2.8-2.2,5-5,5h-42c-2.8,0-5-2.2-5-5V75C826,72.2,828.2,70,831,70z"/>
<path class="st0" d="M21,124h82.5c2.8,0,5,2.2,5,5v42c0,2.8-2.2,5-5,5H21c-2.8,0-5-2.2-5-5v-42C16,126.2,18.2,124,21,124z"/>
<path class="st0" d="M115.5,124h42c2.8,0,5,2.2,5,5v42c0,2.8-2.2,5-5,5h-42c-2.8,0-5-2.2-5-5v-42C110.5,126.2,112.7,124,115.5,124z"
	/>
<path class="st0" d="M169.5,124h42c2.8,0,5,2.2,5,5v42c0,2.8-2.2,5-5,5h-42c-2.8,0-5-2.2-5-5v-42C164.5,126.2,166.7,124,169.5,124z"
	/>
<path class="st0" d="M223.5,124h42c2.8,0,5,2.2,5,5v42c0,2.8-2.2,5-5,5h-42c-2.8,0-5-2.2-5-5v-42C218.5,126.2,220.7,124,223.5,124z"
	/>
<path class="st0" d="M277.5,124h42c2.8,0,5,2.2,5,5v42c0,2.8-2.2,5-5,5h-42c-2.8,0-5-2.2-5-5v-42C272.5,126.2,274.7,124,277.5,124z"
	/>
<path class="st0" d="M331.5,124h42c2.8,0,5,2.2,5,5v42c0,2.8-2.2,5-5,5h-42c-2.8,0-5-2.2-5-5v-42C326.5,126.2,328.7,124,331.5,124z"
	/>
<path class="st0" d="M385.5,124h42c2.8,0,5,2.2,5,5v42c0,2.8-2.2,5-5,5h-42c-2.8,0-5-2.2-5-5v-42C380.5,126.2,382.7,124,385.5,124z"
	/>
<path class="st0" d="M439.5,124h42c2.8,0,5,2.2,5,5v42c0,2.8-2.2,5-5,5h-42c-2.8,0-5-2.2-5-5v-42C434.5,126.2,436.7,124,439.5,124z"
	/>
<path class="st0" d="M493.5,124h42c2.8,0,5,2.2,5,5v42c0,2.8-2.2,5-5,5h-42c-2.8,0-5-2.2-5-5v-42C488.5,126.2,490.7,124,493.5,124z"
	/>
<path class="st0" d="M547.5,124h42c2.8,0,5,2.2,5,5v42c0,2.8-2.2,5-5,5h-42c-2.8,0-5-2.2-5-5v-42C542.5,126.2,544.7,124,547.5,124z"
	/>
<path class="st0" d="M601.5,124h42c2.8,0,5,2.2,5,5v42c0,2.8-2.2,5-5,5h-42c-2.8,0-5-2.2-5-5v-42C596.5,126.2,598.7,124,601.5,124z"
	/>
<path class="st0" d="M655.5,124h42c2.8,0,5,2.2,5,5v42c0,2.8-2.2,5-5,5h-42c-2.8,0-5-2.2-5-5v-42C650.5,126.2,652.7,124,655.5,124z"
	/>
<path class="st0" d="M709.5,124H819c2.8,0,5,2.2,5,5v42c0,2.8-2.2,5-5,5H709.5c-2.8,0-5-2.2-5-5v-42
	C704.5,126.2,706.7,124,709.5,124z"/>
<path class="st0" d="M831,124h42c2.8,0,5,2.2,5,5v42c0,2.8-2.2,5-5,5h-42c-2.8,0-5-2.2-5-5v-42C826,126.2,828.2,124,831,124z"/>
<path class="st0" d="M21,178h109.5c2.8,0,5,2.2,5,5v42c0,2.8-2.2,5-5,5H21c-2.8,0-5-2.2-5-5v-42C16,180.2,18.2,178,21,178z"/>
<path class="st0" d="M142.5,178h42c2.8,0,5,2.2,5,5v42c0,2.8-2.2,5-5,5h-42c-2.8,0-5-2.2-5-5v-42C137.5,180.2,139.7,178,142.5,178z"
	/>
<path class="st0" d="M196.5,178h42c2.8,0,5,2.2,5,5v42c0,2.8-2.2,5-5,5h-42c-2.8,0-5-2.2-5-5v-42C191.5,180.2,193.7,178,196.5,178z"
	/>
<path class="st0" d="M250.5,178h42c2.8,0,5,2.2,5,5v42c0,2.8-2.2,5-5,5h-42c-2.8,0-5-2.2-5-5v-42C245.5,180.2,247.7,178,250.5,178z"
	/>
<path class="st0" d="M304.5,178h42c2.8,0,5,2.2,5,5v42c0,2.8-2.2,5-5,5h-42c-2.8,0-5-2.2-5-5v-42C299.5,180.2,301.7,178,304.5,178z"
	/>
<path class="st0" d="M358.5,178h42c2.8,0,5,2.2,5,5v42c0,2.8-2.2,5-5,5h-42c-2.8,0-5-2.2-5-5v-42C353.5,180.2,355.7,178,358.5,178z"
	/>
<path class="st0" d="M412.5,178h42c2.8,0,5,2.2,5,5v42c0,2.8-2.2,5-5,5h-42c-2.8,0-5-2.2-5-5v-42C407.5,180.2,409.7,178,412.5,178z"
	/>
<path class="st0" d="M466.5,178h42c2.8,0,5,2.2,5,5v42c0,2.8-2.2,5-5,5h-42c-2.8,0-5-2.2-5-5v-42C461.5,180.2,463.7,178,466.5,178z"
	/>
<path class="st0" d="M520.5,178h42c2.8,0,5,2.2,5,5v42c0,2.8-2.2,5-5,5h-42c-2.8,0-5-2.2-5-5v-42C515.5,180.2,517.7,178,520.5,178z"
	/>
<path class="st0" d="M574.5,178h42c2.8,0,5,2.2,5,5v42c0,2.8-2.2,5-5,5h-42c-2.8,0-5-2.2-5-5v-42C569.5,180.2,571.7,178,574.5,178z"
	/>
<path class="st0" d="M628.5,178h42c2.8,0,5,2.2,5,5v42c0,2.8-2.2,5-5,5h-42c-2.8,0-5-2.2-5-5v-42C623.5,180.2,625.7,178,628.5,178z"
	/>
<path class="st0" d="M682.5,178H765c2.8,0,5,2.2,5,5v42c0,2.8-2.2,5-5,5h-82.5c-2.8,0-5-2.2-5-5v-42
	C677.5,180.2,679.7,178,682.5,178z"/>
<path class="st0" d="M777,178h42c2.8,0,5,2.2,5,5v42c0,2.8-2.2,5-5,5h-42c-2.8,0-5-2.2-5-5v-42C772,180.2,774.2,178,777,178z"/>
<path class="st0" d="M831,178h42c2.8,0,5,2.2,5,5v42c0,2.8-2.2,5-5,5h-42c-2.8,0-5-2.2-5-5v-42C826,180.2,828.2,178,831,178z"/>
<path class="st0" d="M21,232h55.5c2.8,0,5,2.2,5,5v42c0,2.8-2.2,5-5,5H21c-2.8,0-5-2.2-5-5v-42C16,234.2,18.2,232,21,232z"/>
<path class="st0" d="M88.5,232H144c2.8,0,5,2.2,5,5v42c0,2.8-2.2,5-5,5H88.5c-2.8,0-5-2.2-5-5v-42C83.5,234.2,85.7,232,88.5,232z"/>
<path class="st0" d="M156,232h55.5c2.8,0,5,2.2,5,5v42c0,2.8-2.2,5-5,5H156c-2.8,0-5-2.2-5-5v-42C151,234.2,153.2,232,156,232z"/>
<path class="st0" d="M223.5,232H549c2.8,0,5,2.2,5,5v42c0,2.8-2.2,5-5,5H223.5c-2.8,0-5-2.2-5-5v-42
	C218.5,234.2,220.7,232,223.5,232z"/>
<path class="st0" d="M561,232h55.5c2.8,0,5,2.2,5,5v42c0,2.8-2.2,5-5,5H561c-2.8,0-5-2.2-5-5v-42C556,234.2,558.2,232,561,232z"/>
<path class="st0" d="M628.5,232H684c2.8,0,5,2.2,5,5v42c0,2.8-2.2,5-5,5h-55.5c-2.8,0-5-2.2-5-5v-42
	C623.5,234.2,625.7,232,628.5,232z"/>
<path class="st0" d="M723,232h42c2.8,0,5,2.2,5,5v42c0,2.8-2.2,5-5,5h-42c-2.8,0-5-2.2-5-5v-42C718,234.2,720.2,232,723,232z"/>
<path class="st0" d="M777,232h42c2.8,0,5,2.2,5,5v42c0,2.8-2.2,5-5,5h-42c-2.8,0-5-2.2-5-5v-42C772,234.2,774.2,232,777,232z"/>
<path class="st0" d="M831,232h42c2.8,0,5,2.2,5,5v42c0,2.8-2.2,5-5,5h-42c-2.8,0-5-2.2-5-5v-42C826,234.2,828.2,232,831,232z"/>
</svg>
