<?xml version="1.0" encoding="utf-8"?>
<!-- Generator: Adobe Illustrator 26.0.3, SVG Export Plug-In . SVG Version: 6.00 Build 0)  -->
<svg version="1.1" id="svg2" xmlns:cc="http://creativecommons.org/ns#" xmlns:dc="http://purl.org/dc/elements/1.1/"
	xmlns:inkscape="http://www.inkscape.org/namespaces/inkscape" xmlns:rdf="http://www.w3.org/1999/02/22-rdf-syntax-ns#"
	xmlns:sodipodi="http://sodipodi.sourceforge.net/DTD/sodipodi-0.dtd" xmlns:svg="http://www.w3.org/2000/svg"
	xmlns="http://www.w3.org/2000/svg" xmlns:xlink="http://www.w3.org/1999/xlink" x="0px" y="0px"
	viewBox="0 0 1293.7 1293.7" style="enable-background:new 0 0 1293.7 1293.7;" xml:space="preserve">
	<style type="text/css">
		.st0 {
			fill: #CECECE;
		}
	</style>
	<g id="g1" transform="matrix(1.25,0,0,-1.25,0,708.66125)" inkscape:groupmode="layer" inkscape:label="IMac nologo">
		<path id="path3" inkscape:connector-curvature="0" class="st0" d="M420.1-172.2c0,0-2.4-69.5-15-85.8l0,0
		c-5.1-6.8-24.2-6.3-29.7-11.9l0,0c-0.9-0.9-0.1-9.3,0-9.4l0,0c2.9-3.8,19.4-5.1,19.4-5.1l0,0h221.4c0,0,16.5,1.5,19.3,5.1l0,0
		c0.2,0.1,0.9,8.7,0,9.4l0,0c-5.6,5.5-24.6,5.1-29.7,11.9l0,0c-12.6,16.4-15,85.8-15,85.8l0,0H420.1L420.1-172.2z" />
		<path id="path2" inkscape:connector-curvature="0" class="st0" d="M185.8,404.8c-15.8,0-28.5-12.8-28.5-28.5l0,0v-521.5
		c0-15.8,12.8-28.5,28.5-28.5l0,0h639.2c15.8,0,28.5,12.8,28.5,28.5l0,0v521.5c0,15.8-12.8,28.5-28.5,28.5l0,0L185.8,404.8
		L185.8,404.8z" />
		<path id="path1" inkscape:connector-curvature="0" d="M845.2-22.8c0-15.8-12.8-28.5-28.5-28.5H194.2c-15.8,0-28.5,12.8-28.5,28.5
		v390.9c0,15.8,12.8,28.5,28.5,28.5h622.5c15.8,0,28.5-12.8,28.5-28.5V-22.8z" />
	</g>
</svg>